<?xml version="1.0" encoding="UTF-8" standalone="no"?>
<!-- Created with Inkscape (http://www.inkscape.org/) -->

<svg
   xmlns:dc="http://purl.org/dc/elements/1.1/"
   xmlns:cc="http://creativecommons.org/ns#"
   xmlns:rdf="http://www.w3.org/1999/02/22-rdf-syntax-ns#"
   xmlns:svg="http://www.w3.org/2000/svg"
   xmlns="http://www.w3.org/2000/svg"
   xmlns:xlink="http://www.w3.org/1999/xlink"
   xmlns:sodipodi="http://sodipodi.sourceforge.net/DTD/sodipodi-0.dtd"
   xmlns:inkscape="http://www.inkscape.org/namespaces/inkscape"
   width="512"
   height="512"
   id="svg2"
   version="1.1"
   inkscape:version="0.48.5 r10040"
   sodipodi:docname="ic_launcher-web.svg"
   inkscape:export-filename="C:\Users\surrel\ownCloud\androidStudio_workspace_perso\FacebookNotifications\app\src\main\ic_launcher-web.png"
   inkscape:export-xdpi="45"
   inkscape:export-ydpi="45">
  <defs
     id="defs4">
    <linearGradient
       id="linearGradient3883"
       inkscape:collect="always">
      <stop
         id="stop3885"
         offset="0"
         style="stop-color:#ffffff;stop-opacity:0.59139782" />
      <stop
         style="stop-color:#868686;stop-opacity:0"
         offset="0.26069719"
         id="stop3887" />
      <stop
         id="stop3895"
         offset="0.4965055"
         style="stop-color:#000000;stop-opacity:0.15591398" />
      <stop
         id="stop3893"
         offset="0.50696719"
         style="stop-color:#ffffff;stop-opacity:0.23655914" />
      <stop
         id="stop3889"
         offset="0.79116029"
         style="stop-color:#585858;stop-opacity:0" />
      <stop
         id="stop3891"
         offset="1"
         style="stop-color:#000000;stop-opacity:0.5" />
    </linearGradient>
    <inkscape:perspective
       sodipodi:type="inkscape:persp3d"
       inkscape:vp_x="193.92091 : 120.07413 : 1"
       inkscape:vp_y="5.1431211e-014 : 839.96316 : 0"
       inkscape:vp_z="780.22706 : 125.51116 : 1"
       inkscape:persp3d-origin="474.68963 : 181.54074 : 1"
       id="perspective2987" />
    <linearGradient
       inkscape:collect="always"
       xlink:href="#linearGradient3815-2"
       id="linearGradient3821-8"
       x1="308.18756"
       y1="552.98688"
       x2="308.18756"
       y2="1020.394"
       gradientUnits="userSpaceOnUse" />
    <linearGradient
       inkscape:collect="always"
       id="linearGradient3815-2">
      <stop
         style="stop-color:#ffffff;stop-opacity:0.78494626"
         offset="0"
         id="stop3817-7" />
      <stop
         id="stop3831-7"
         offset="0.26069719"
         style="stop-color:#868686;stop-opacity:0" />
      <stop
         style="stop-color:#585858;stop-opacity:0"
         offset="0.79116029"
         id="stop3841-1" />
      <stop
         style="stop-color:#000000;stop-opacity:1"
         offset="1"
         id="stop3819-2" />
    </linearGradient>
    <linearGradient
       gradientTransform="matrix(1.0353008,0,0,1.0353008,1.247199,-18.78304)"
       y2="1020.394"
       x2="308.18756"
       y1="552.98688"
       x1="308.18756"
       gradientUnits="userSpaceOnUse"
       id="linearGradient3860"
       xlink:href="#linearGradient3883"
       inkscape:collect="always" />
    <linearGradient
       inkscape:collect="always"
       xlink:href="#linearGradient3883"
       id="linearGradient3901"
       gradientUnits="userSpaceOnUse"
       gradientTransform="matrix(1.0353008,0,0,1.0353008,1.2472,-18.78304)"
       x1="308.18756"
       y1="552.98688"
       x2="308.18756"
       y2="1020.394" />
  </defs>
  <sodipodi:namedview
     id="base"
     pagecolor="#ffffff"
     bordercolor="#666666"
     borderopacity="1.0"
     inkscape:pageopacity="0.0"
     inkscape:pageshadow="2"
     inkscape:zoom="1"
     inkscape:cx="95.004234"
     inkscape:cy="186.23988"
     inkscape:document-units="px"
     inkscape:current-layer="layer1"
     showgrid="false"
     inkscape:window-width="1920"
     inkscape:window-height="1178"
     inkscape:window-x="1912"
     inkscape:window-y="-8"
     inkscape:window-maximized="1" />
  <metadata
     id="metadata7">
    <rdf:RDF>
      <cc:Work
         rdf:about="">
        <dc:format>image/svg+xml</dc:format>
        <dc:type
           rdf:resource="http://purl.org/dc/dcmitype/StillImage" />
        <dc:title></dc:title>
      </cc:Work>
    </rdf:RDF>
  </metadata>
  <g
     inkscape:label="Layer 1"
     inkscape:groupmode="layer"
     id="layer1"
     transform="translate(0,-540.36218)">
    <g
       id="g4509"
       transform="matrix(1.0353008,0,0,1.0353008,1.2471984,-37.418456)">
      <g
         id="g4411">
        <path
           style="color:#000000;fill:#003b92;fill-opacity:1;fill-rule:nonzero;stroke:none;stroke-width:1;marker:none;visibility:visible;display:inline;overflow:visible;enable-background:accumulate"
           d="m 13.879647,1038.4976 -9.8156188,-39.08654 0,-193.41197 9.8677408,-1.72601 z"
           id="path3069"
           inkscape:connector-curvature="0"
           sodipodi:nodetypes="ccccc" />
        <rect
           style="color:#000000;fill:#0055d4;fill-opacity:1;fill-rule:nonzero;stroke:none;stroke-width:1;marker:none;visibility:visible;display:inline;overflow:visible;enable-background:accumulate"
           id="rect3047"
           width="232.21342"
           height="232.21342"
           x="13.862233"
           y="806.28564" />
        <path
           sodipodi:nodetypes="sssscssssssssssssss"
           inkscape:connector-curvature="0"
           id="path3898"
           d="m 129.98536,850.51256 c -21.44261,0 -40.915193,5.47295 -55.26864,14.57201 -14.353443,9.09907 -23.794396,22.12874 -23.794396,36.88952 0,14.76079 9.778897,27.27807 23.794396,36.88952 15.406434,10.56532 -32.629093,41.16602 -3.646434,55.40859 -20.140574,-20.9573 31.987624,-41.78826 58.915074,-40.83657 21.42924,0.75736 40.9152,-5.47296 55.26864,-14.57202 14.35344,-9.09906 23.76158,-22.12873 23.76158,-36.88952 0,-14.76078 -9.40814,-27.79045 -23.76158,-36.88952 -14.35344,-9.09906 -33.82602,-14.57201 -55.26864,-14.57201 z m 0,7.35165 c 20.18328,0 38.405,5.22962 51.33026,13.42332 12.92526,8.19369 20.34831,19.0595 20.34831,30.68656 0,11.62706 -7.42305,22.49287 -20.34831,30.68657 -12.92526,8.19369 -31.14698,13.42332 -51.33026,13.42332 -20.18327,0 -38.404994,-5.22963 -51.330257,-13.42332 -12.925259,-8.1937 -20.381131,-19.05951 -20.381131,-30.68657 0,-11.62706 7.455872,-22.49287 20.381131,-30.68656 12.925263,-8.1937 31.146987,-13.42332 51.330257,-13.42332 z"
           style="font-size:medium;font-style:normal;font-variant:normal;font-weight:normal;font-stretch:normal;text-indent:0;text-align:start;text-decoration:none;line-height:normal;letter-spacing:normal;word-spacing:normal;text-transform:none;direction:ltr;block-progression:tb;writing-mode:lr-tb;text-anchor:start;baseline-shift:baseline;color:#000000;fill:#ffffff;fill-opacity:1;stroke:none;stroke-width:7;marker:none;visibility:visible;display:inline;overflow:visible;enable-background:accumulate;font-family:Sans;-inkscape-font-specification:Sans" />
      </g>
      <g
         transform="translate(-20,0)"
         id="g4462">
        <rect
           y="806.28564"
           x="265.91873"
           height="232.21342"
           width="232.21342"
           id="rect3059"
           style="color:#000000;fill:#0055d4;fill-opacity:1;fill-rule:nonzero;stroke:none;stroke-width:1;marker:none;visibility:visible;display:inline;overflow:visible;enable-background:accumulate" />
        <path
           sodipodi:nodetypes="ccccc"
           inkscape:connector-curvature="0"
           id="path3079"
           d="m 498.05564,1038.4976 9.99224,-39.08654 0,-194.56629 -10.45511,0 z"
           style="color:#000000;fill:#003b92;fill-opacity:1;fill-rule:nonzero;stroke:none;stroke-width:1;marker:none;visibility:visible;display:inline;overflow:visible;enable-background:accumulate" />
        <g
           id="g4423">
          <rect
             y="856.52783"
             x="301.95676"
             height="131.72899"
             width="160.13734"
             id="rect3919"
             style="color:#000000;fill:none;stroke:#ffffff;stroke-width:6.76131964;stroke-linecap:butt;stroke-linejoin:round;stroke-miterlimit:4;stroke-opacity:1;stroke-dasharray:none;stroke-dashoffset:0;marker:none;visibility:visible;display:inline;overflow:visible;enable-background:accumulate" />
          <path
             inkscape:connector-curvature="0"
             id="path3987"
             d="m 307.95654,896.09164 c -3.14015,-0.091 -2.2595,4.83622 0.78959,3.56035 -3.2366,0.0835 -3.48512,5.88781 0.86146,4.28211 -0.64182,4.16965 2.46258,3.10772 2.47658,-0.27517 1.51556,-1.77906 5.04893,-0.92363 6.87935,0.41277 1.88417,1.80137 2.60156,4.48069 4.40279,5.77865 2.02465,2.14396 1.47307,6.20513 2.33898,9.35592 1.11915,1.98533 2.41602,3.24258 3.57727,4.95315 3.4106,-0.92497 4.24085,1.45874 5.22831,3.57726 0.73152,1.7174 3.72477,1.31685 5.09073,2.33899 1.94809,1.61208 4.94763,1.54507 6.19141,3.71485 0.37604,3.03724 -2.23594,7.33001 1.37588,9.08075 1.29541,0.5804 2.14565,1.99802 2.0638,4.12761 0.50542,3.96436 -0.1126,7.72328 -0.96311,11.41974 0.22463,2.90765 -1.12586,6.89212 0.90237,8.92432 4.71044,2.46263 1.86597,-4.04399 2.95007,-5.48465 0.15137,-1.2482 -0.78742,-3.08166 1.1007,-3.85243 0.46705,-1.9381 3.3559,-1.91808 3.85243,-3.71486 1.2244,-1.49934 1.03161,-2.89174 2.75175,-3.99003 1.0441,-1.76068 2.76707,-2.01612 4.2652,-3.30209 1.03319,-0.90238 0.61158,-4.18623 2.33899,-5.22831 1.80786,-3.55254 -4.18382,-2.13636 -5.64107,-4.40279 -0.051,-3.09952 -3.23108,-2.071 -4.95315,-3.30209 -1.10223,-3.06696 -5.30988,-2.3737 -7.29211,-1.1007 -3.79652,2.22175 -3.46366,-3.33052 -5.64108,-2.88932 -1.83974,-1.81337 -0.24364,-4.1693 -3.1645,-2.06381 -3.7666,-0.15455 -2.77881,-6.12891 0.82552,-5.64108 2.98887,-1.66121 6.45924,5.15481 4.40279,0.82552 0.31959,-1.61816 2.0318,-1.68935 1.90994,-3.80519 -0.12291,-2.72264 3.92112,-2.1401 4.00631,-4.72521 0.72487,-1.05065 6.23331,-0.44065 1.92622,-1.78862 -2.44383,-1.69238 5.12234,-3.24936 2.88933,-0.96312 -2.26759,2.56771 3.44451,1.69085 1.78862,-0.55035 -2.91378,-0.76281 -0.50927,-2.54332 -2.20138,-4.67796 -1.66705,-3.53766 -1.64588,-3.86619 -3.99003,-2.06381 -1.80713,-1.3544 -2.14444,-7.04727 -4.67797,-3.57726 -2.44524,2.56171 4.00839,5.17685 0.54956,6.09301 0.5975,2.10502 -3.48394,4.21958 -3.16371,0.37358 -1.96594,-1.42846 -5.65043,-1.63053 -5.41643,-5.99113 0.46244,-1.8964 2.85819,-1.87467 4.17814,-2.40169 0.0146,2.16362 2.1401,0.7785 2.2014,-0.55034 -3.28444,-0.81483 0.92869,0.004 -0.13758,-2.75174 1.09115,-2.8064 -1.9711,-4.99934 -2.06382,-1.1007 -1.13259,-1.38515 -4.52274,-3.12147 -3.43967,-6.05384 2.15681,-1.27997 1.75139,-4.5388 -0.41276,-2.2014 -4.31716,-1.12889 -1.87604,1.47497 -2.82826,2.49154 -0.47131,3.04797 2.17752,-0.0581 2.27567,-2.08921 1.83552,1.74074 -2.30728,5.42023 0.69017,6.20186 0.14431,2.22491 -2.12031,-1.43343 -1.78863,1.92622 -3.78197,0.71149 -4.27097,-2.98934 -0.41276,-2.33898 -0.64478,-2.2661 -4.7216,-0.21518 -2.33898,-4.67797 0.21374,-2.73842 -1.8747,-1.35466 -2.33898,0.27518 -3.02731,0.69468 -2.08801,-3.46726 -4.95315,-2.75174 -1.97329,0.46246 -3.63479,4.5764 -1.37587,5.64107 2.88415,0.87466 2.52585,-5.52202 3.18148,-0.19855 5.51396,-0.45762 -3.07221,3.8449 3.42271,3.08788 0.28135,1.8218 -4.93166,1.00949 -4.85474,-1.23907 -1.76024,-0.35365 -4.89696,-1.60061 -6.42741,7.8e-4 -3.29057,1.06768 -4.27387,-2.04388 -7.49872,-1.65116 -2.48093,-0.65919 -4.7931,-0.97895 -5.70965,1.376 -1.2758,1.47558 -0.76969,2.01347 0,3.57726 z"
             style="color:#000000;fill:#ffffff;fill-opacity:1;fill-rule:nonzero;stroke:none;stroke-width:7;marker:none;visibility:visible;display:inline;overflow:visible;enable-background:accumulate" />
          <path
             inkscape:connector-curvature="0"
             id="path3991"
             d="m 348.40717,897.74269 c -3.54338,0.94839 1.95365,1.53424 3.02691,3.02691 1.83281,1.91465 0.29306,-2.95373 -0.59653,-3.74684 0.27527,-1.1204 4.4149,2.04731 3.0731,-1.06871 -5.02581,0.22035 -1.59713,-3.80304 -4.26519,-5.36589 -0.74373,-1.17462 -1.33252,-2.40374 -3.02273,-1.66116 -1.85518,-0.2455 2.88597,-2.44799 -0.73675,-1.78981 -2.76499,-1.9244 -2.36814,7.03587 -2.9823,0.56163 0.95347,-2.38734 -1.42077,0.66581 -1.1007,1.92622 -1.79254,2.71584 0.82095,2.98243 3.10966,1.91294 3.03785,0.2127 4.19909,2.86762 2.11865,4.14089 1.26068,-1.6034 3.65162,-0.33947 1.37588,2.06382 l 0,0 z"
             style="color:#000000;fill:#ffffff;fill-opacity:1;fill-rule:nonzero;stroke:none;stroke-width:7;marker:none;visibility:visible;display:inline;overflow:visible;enable-background:accumulate" />
          <path
             inkscape:connector-curvature="0"
             id="path3993"
             d="m 343.45403,885.63501 c 5.73346,0.12342 0.17252,-3.37749 -2.20139,-2.33898 -0.34936,-2.07736 7.88411,-0.66832 4.60461,-2.89935 3.25781,-0.26888 1.38533,-3.6519 1.7244,-5.08071 1.92578,-0.0548 3.23012,-1.3982 3.57727,-3.30208 0.96789,-0.50728 1.89049,-3.09312 0.68792,-1.92623 2.42292,-1.13313 2.79577,-5.29374 -1.65104,-5.22831 -1.81702,-0.92248 -4.12911,0.0828 -4.95313,1.23829 -0.69576,1.40825 -2.74351,2.33268 -4.12763,2.61416 -1.72003,2.03688 1.20185,2.8444 2.61417,3.85243 2.59419,-0.56088 4.45698,-1.49702 1.74004,0.4329 -1.48516,1.21761 -2.99474,0.25937 -2.2904,2.04368 1.80102,1.7581 -1.43232,3.35397 0.13759,3.99003 2.34761,0.45101 -3.98026,3.73664 -4.2652,1.78862 -2.7623,0.45337 2.92414,1.27728 0.51272,2.62051 -2.36841,3.37495 1.68816,-0.63878 3.61489,0.544 -0.15159,0.65113 1.78534,0.43717 0.27518,1.65104 z"
             style="color:#000000;fill:#ffffff;fill-opacity:1;fill-rule:nonzero;stroke:none;stroke-width:7;marker:none;visibility:visible;display:inline;overflow:visible;enable-background:accumulate" />
          <path
             inkscape:connector-curvature="0"
             id="path3995"
             d="m 339.46157,871.21855 c -1.12965,0.23376 -0.74117,1.64195 -1.60563,2.18899 -0.0384,1.47188 2.30475,1.57034 1.75132,3.59979 -0.46432,2.27873 2.96331,1.66064 2.7241,-0.0488 1.64655,-1.08516 -1.2196,-2.58042 -0.2918,-4.13471 -0.7317,-0.97066 -1.45949,-1.40897 -2.57799,-1.60523 z"
             style="color:#000000;fill:#ffffff;fill-opacity:1;fill-rule:nonzero;stroke:none;stroke-width:7;marker:none;visibility:visible;display:inline;overflow:visible;enable-background:accumulate" />
          <path
             inkscape:connector-curvature="0"
             id="path3997"
             d="m 336.34832,876.81265 c -0.12084,-1.42175 -2.35396,-1.5662 -1.75136,0.0971 0.42029,1.15178 0.64592,1.98073 1.84862,2.23795 0.67074,1.36744 1.12852,-0.63793 0.24331,-0.92452 l 0,-0.97288 -0.34052,-0.43781 -5e-5,1.3e-4 z"
             style="color:#000000;fill:#ffffff;fill-opacity:1;fill-rule:nonzero;stroke:none;stroke-width:7;marker:none;visibility:visible;display:inline;overflow:visible;enable-background:accumulate" />
          <path
             inkscape:connector-curvature="0"
             id="path3999"
             d="m 337.75901,877.05587 c -0.4775,1.02016 0.39889,3.28528 1.55686,3.25933 0.94125,-0.83894 -1.25853,-1.9185 -0.97289,-3.11324 -0.12677,-0.16198 -0.38615,-0.45507 -0.58397,-0.14609 z"
             style="color:#000000;fill:#ffffff;fill-opacity:1;fill-rule:nonzero;stroke:none;stroke-width:7;marker:none;visibility:visible;display:inline;overflow:visible;enable-background:accumulate" />
          <path
             inkscape:connector-curvature="0"
             id="path4001"
             d="m 331.72711,877.34774 c -1.55844,1.9532 2.78802,-0.20281 0,0 z"
             style="color:#000000;fill:#ffffff;fill-opacity:1;fill-rule:nonzero;stroke:none;stroke-width:7;marker:none;visibility:visible;display:inline;overflow:visible;enable-background:accumulate" />
          <path
             inkscape:connector-curvature="0"
             id="path4003"
             d="m 331.33795,879.0503 c -1.68321,2.07605 3.46133,0.71268 0.24328,0.19448 -0.22831,-0.46458 -0.31592,-0.0412 -0.48651,0.0974"
             style="color:#000000;fill:#ffffff;fill-opacity:1;fill-rule:nonzero;stroke:none;stroke-width:7;marker:none;visibility:visible;display:inline;overflow:visible;enable-background:accumulate" />
          <path
             inkscape:connector-curvature="0"
             id="path4005"
             d="m 328.95438,880.2664 c -1.29125,0.12046 -2.1309,1.67975 -2.57836,2.43241 2.54284,-0.63634 2.30753,1.72009 4.23215,1.99459 0.19251,1.55056 1.33813,1.17586 2.33502,0.53502 1.86428,-0.0535 2.62692,-2.56868 0.3405,-2.28664 -0.60207,-3.23085 -1.34938,0.67351 -2.48091,-0.53502 -2.16675,-0.25147 -0.49419,-1.19408 -1.8484,-2.14036 z"
             style="color:#000000;fill:#ffffff;fill-opacity:1;fill-rule:nonzero;stroke:none;stroke-width:7;marker:none;visibility:visible;display:inline;overflow:visible;enable-background:accumulate" />
          <path
             inkscape:connector-curvature="0"
             id="path4007"
             d="m 336.83477,881.62845 c -1.14839,0.0312 -2.93768,1.44508 -0.92428,1.70283 0.45945,2.44254 3.47813,0.15148 1.36198,-1.31341 -0.33544,-0.17826 -0.91463,-0.47099 -0.63227,-1.02145"
             style="color:#000000;fill:#ffffff;fill-opacity:1;fill-rule:nonzero;stroke:none;stroke-width:7;marker:none;visibility:visible;display:inline;overflow:visible;enable-background:accumulate" />
          <path
             inkscape:connector-curvature="0"
             id="path4009"
             d="m 364.80531,862.75442 c -1.19261,0.0469 -2.00208,1.32025 -1.11901,1.89714 -1.69953,-1.01096 -4.13808,0.47881 -1.16745,1.21591 -2.66066,-0.0545 -1.66851,1.47203 -1.11888,3.3079 -1.21445,-0.30931 -1.17064,-2.77113 -2.91869,-2.6267 -0.53725,0.81455 -0.64751,2.84777 -1.65403,1.26456 -1.00871,-0.13899 -1.66853,1.4963 -2.91901,1.26487 0.30355,1.48235 -0.29829,2.17945 -1.41072,2.77287 0.35118,1.69599 -2.10919,1.54989 -1.11918,2.5784 1.46942,-0.33625 1.57465,-0.003 0.92419,0.87569 -0.78404,1.68341 -3.9874,1.79441 -2.77301,4.28087 3.11819,0.37813 0.50571,0.22588 0.63229,2.2377 1.58734,1.31128 3.91596,0.0167 5.35114,1.60533 1.31257,0.43466 0.30432,2.51966 1.26499,3.45387 0.15671,1.93052 0.45821,3.74353 1.80008,4.08623 -2.29143,1.94784 0.48547,0.68724 0.19493,2.23766 -1.12246,0.99795 -1.53336,3.47405 -0.29221,5.05944 0.7088,2.00808 1.24041,4.83379 3.74583,4.66998 1.33584,-2.13494 0.70069,-4.80288 3.162,-6.12902 2.35975,-1.10418 4.66453,-2.71763 6.42133,-4.32974 -0.45026,-0.26314 -2.82072,-2.58513 -0.48639,-1.36202 0.61824,0.43442 1.18272,-1.73767 0.0483,-1.89744 -0.92892,-1.27418 -0.005,-1.79301 0.82692,-2.23767 -0.0146,-0.84388 -0.16456,-1.20636 0.87575,-1.50828 0.55033,-0.99076 0.88242,-3.26752 -0.38931,-3.40512 -1.84204,-0.53092 3.69296,-0.80387 0.77828,-2.04292 -0.87304,-1.26997 -1.41801,-3.32592 0.0483,-4.18381 -0.95767,-1.14087 -0.2805,-2.76796 1.7508,-2.57806 -0.52965,-1.30566 2.21975,-2.62359 0.92428,-4.13472 -1.26463,-1.289 -1.86001,0.79445 -2.87011,1.26502 -2.25996,2.52839 -0.578,-2.26087 -1.89694,-2.33504 -1.018,0.4881 -3.10904,0.87716 -3.55126,0.38934 1.68401,-0.61212 3.91562,-0.76321 5.10827,-2.04366 -0.42617,-0.47057 -1.40355,-1.05168 -1.99456,-1.55697 -0.80908,-0.76021 -0.7112,-3.52417 -2.62685,-2.18892 -1.22428,0.54974 -2.62246,-0.23584 -3.55018,0.0973 z"
             style="color:#000000;fill:#ffffff;fill-opacity:1;fill-rule:nonzero;stroke:none;stroke-width:7;marker:none;visibility:visible;display:inline;overflow:visible;enable-background:accumulate" />
          <path
             inkscape:connector-curvature="0"
             id="path4011"
             d="m 372.88027,896.80551 c -2.22673,-1.26479 -1.96462,0.96995 -1.31323,2.38345 1.58792,0.84533 5.04524,0.10114 3.74555,-2.14039 -0.30451,-1.31308 -1.71548,0.0273 -2.43232,-0.24306 z"
             style="color:#000000;fill:#ffffff;fill-opacity:1;fill-rule:nonzero;stroke:none;stroke-width:7;marker:none;visibility:visible;display:inline;overflow:visible;enable-background:accumulate" />
          <path
             inkscape:connector-curvature="0"
             id="path4013"
             d="m 345.68805,926.42994 c -2.02896,0.0966 1.07601,0.68518 1.45957,1.45944 1.31906,1.41609 1.47638,-0.2041 0.0487,-0.87543 -0.38286,-0.46898 -1.10842,-0.16701 -1.50832,-0.58401 z"
             style="color:#000000;fill:#ffffff;fill-opacity:1;fill-rule:nonzero;stroke:none;stroke-width:7;marker:none;visibility:visible;display:inline;overflow:visible;enable-background:accumulate" />
          <path
             inkscape:connector-curvature="0"
             id="path4015"
             d="m 350.40656,928.03521 c -3.4301,0.45896 1.98774,1.3028 0,0 z"
             style="color:#000000;fill:#ffffff;fill-opacity:1;fill-rule:nonzero;stroke:none;stroke-width:7;marker:none;visibility:visible;display:inline;overflow:visible;enable-background:accumulate" />
          <path
             inkscape:connector-curvature="0"
             id="path4017"
             d="m 354.97913,964.22665 c -1.69504,0.3246 1.03679,0.91619 0.24316,-0.0969 l -0.24323,0.0973 7e-5,-3.4e-4 z"
             style="color:#000000;fill:#ffffff;fill-opacity:1;fill-rule:nonzero;stroke:none;stroke-width:7;marker:none;visibility:visible;display:inline;overflow:visible;enable-background:accumulate" />
          <path
             inkscape:connector-curvature="0"
             id="path4019"
             d="m 355.61151,972.69077 c -1.80588,0.40976 -1.46241,2.64038 -2.8218,3.25947 -0.3405,1.18978 -1.35384,1.63703 -2.23811,2.23828 0.0334,1.14473 1.85328,1.52423 0.97282,2.91883 -1.10311,0.65771 -3.09032,-2.27749 -2.77277,0.77847 -1.45295,-0.60633 -1.47775,0.59483 -0.48674,1.1188 -2.09361,0.88192 0.61929,1.55446 1.9031,1.21634 1.27209,-0.4354 4.80161,0.86968 4.66368,-0.58379 0.43022,-1.39795 -1.35109,-2.25939 -0.34056,-3.35683 -0.0552,-1.57143 0.46533,-2.97231 0.58384,-4.37793 1.51479,0.37603 2.4953,-2.05971 0.58381,-1.50805 -0.87175,-0.0425 0.0613,-1.22062 -0.0473,-1.70359 z"
             style="color:#000000;fill:#ffffff;fill-opacity:1;fill-rule:nonzero;stroke:none;stroke-width:7;marker:none;visibility:visible;display:inline;overflow:visible;enable-background:accumulate" />
          <path
             inkscape:connector-curvature="0"
             id="path4021"
             d="m 387.41313,874.24967 c 1.21435,0.79542 1.19782,0.16495 2.30461,-0.13758 0.45373,-0.76449 0.82526,-1.43275 1.92628,-0.82557 0.84752,-0.15414 3.06974,-0.0585 2.61419,1.13509 -0.54966,0.64052 -0.54692,2.15679 -1.96066,1.41031 -0.57781,-0.31271 -1.35792,-0.50631 -1.65111,-0.96315 -1.11307,1.59397 1.30217,1.98786 1.10075,3.47415 2.31277,0.22383 -0.20254,3.25885 -0.30955,0.79114 -0.57436,-1.65732 -1.64573,0.56052 -1.82309,1.37591 -0.56665,1.4845 -2.01005,0.55183 -1.34149,-0.8943 -0.14888,-0.84772 1.49414,-2.41143 -0.17197,-1.41029 -0.80419,-0.0103 -2.164,-0.90521 -1.27269,-1.71987 -0.9946,-0.69256 -0.13728,-1.71815 0.58473,-2.23584 z"
             style="color:#000000;fill:#ffffff;fill-opacity:1;fill-rule:nonzero;stroke:none;stroke-width:7;marker:none;visibility:visible;display:inline;overflow:visible;enable-background:accumulate" />
          <path
             inkscape:connector-curvature="0"
             id="path4023"
             d="m 404.61152,871.77311 c -3.12846,-0.73957 -0.20077,3.45622 0.37836,0.85996 0.49871,-0.71723 0.34529,-1.23922 -0.65354,-0.89434"
             style="color:#000000;fill:#ffffff;fill-opacity:1;fill-rule:nonzero;stroke:none;stroke-width:7;marker:none;visibility:visible;display:inline;overflow:visible;enable-background:accumulate" />
          <path
             inkscape:connector-curvature="0"
             id="path4025"
             d="m 406.50334,872.9426 c -1.03,1.07026 0.87523,0.73557 1.61665,0.2408 1.15092,-0.16039 3.96531,-0.7053 3.2334,-2.27025 -1.05432,0.63203 -4.04442,1.5687 -2.99251,-0.72232 0.99044,-0.90453 -0.45265,-1.77041 -0.68798,-0.34399 0.62699,1.58177 -1.85789,1.01709 -1.58226,2.09823 2.55428,-0.2961 1.45684,0.54217 0.41275,0.99753 l -5e-5,0 z"
             style="color:#000000;fill:#ffffff;fill-opacity:1;fill-rule:nonzero;stroke:none;stroke-width:7;marker:none;visibility:visible;display:inline;overflow:visible;enable-background:accumulate" />
          <path
             inkscape:connector-curvature="0"
             id="path4027"
             d="m 412.55717,880.81946 c -0.66668,1.6654 -3.07729,0.76585 -4.02453,2.37344 -1.83735,2.15838 -3.92613,5.02991 -3.06143,7.84263 0.81019,0.4218 3.30436,1.48091 2.37343,-0.37834 -2.1631,-0.73201 -0.9453,-3.62351 0.41276,-4.67809 1.43579,-1.39079 2.7922,-2.72752 4.54049,-3.68056 0.38498,-0.44162 0.76763,-1.6996 -0.24072,-1.47908 z"
             style="color:#000000;fill:#ffffff;fill-opacity:1;fill-rule:nonzero;stroke:none;stroke-width:7;marker:none;visibility:visible;display:inline;overflow:visible;enable-background:accumulate" />
          <path
             sodipodi:nodetypes="ccccccccccccccccccccccccccccccccccccccccccccccccccccccccccccccccccccccccccccccccccccccccccccccccccccccccccccccccccccccccccccccccccccccccccccccccccccccccccccccccccccccccccccccccccccccccccc"
             inkscape:connector-curvature="0"
             id="path4029"
             d="m 398.3513,899.04976 c -0.69261,-0.93628 -1.0744,-2.1908 -1.68549,-2.95818 0.72759,-0.882 1.58759,0.75497 2.4766,0.58477 1.40951,0.66301 1.87468,-1.23732 0.9287,-1.65107 -1.6512,-0.27527 -1.94537,-2.64654 -3.81811,-2.33904 -0.84676,-0.63922 -1.2973,-2.5613 -3.19893,-1.37589 -1.15462,0.73923 -2.08777,2.0399 -3.47415,2.51107 -1.88465,0.86569 -1.44698,3.4549 -2.90676,4.74817 -0.82162,1.36411 -1.95852,2.00767 -2.7001,3.40406 -0.60642,1.28964 0.22669,3.53975 1.89188,2.78619 0.41386,-1.09552 1.40005,-1.07878 1.44471,0.17199 0.49794,0.52077 0.19256,2.38061 1.30711,1.71985 1.06848,-0.2696 1.93716,-1.01881 2.09826,-2.13263 0.8618,-1.79865 -1.80118,-2.41515 -0.85165,-4.32768 0.70888,-1.18548 1.85226,-2.42324 3.08753,-3.10213 0.75201,0.38278 0.2801,1.80777 -0.0344,2.37343 -0.68597,1.12324 -2.21956,2.1472 -1.47912,3.61174 1.32162,0.45028 2.75836,-0.24606 3.57733,-1.03196 0.81267,-0.43178 1.43655,0.2929 0.82553,0.92873 -0.84841,0.70561 -2.42045,0.46429 -3.0958,1.54792 -0.61874,1.44816 -1.39125,3.21881 -3.33659,3.23337 -0.88444,0.34833 -2.41085,0.67198 -2.57979,-0.61915 -0.13598,-1.1265 -1.43454,-1.65766 -1.44471,-0.13761 0.41349,1.692 -2.11096,1.32495 -2.02945,2.92376 -0.11453,0.59621 -0.73512,1.12495 -1.20391,0.41276 -0.22498,-0.40043 0.94077,-0.95036 0.61919,-1.75428 -1.10691,0.0201 -1.16157,-1.26526 -1.65109,-1.99505 0.44164,-1.35531 -0.85883,-3.01573 -2.09822,-1.75426 -0.62304,0.84807 0.28751,1.6503 -0.20638,2.37344 -0.63805,0.38351 -1.6425,0.52416 -1.47911,1.51351 -0.21308,1.38358 1.86819,1.40494 1.78866,0.1032 0.26829,-0.66006 0.16813,-2.09505 1.47908,-1.41029 0.4816,0.78617 -0.24771,1.37823 -0.75675,1.85748 -0.51838,1.22263 1.21635,1.4835 1.75426,1.44469 0.90041,0.39238 0.35869,0.88058 -0.10319,1.06636 -0.84334,-0.55823 -2.38564,0.5699 -1.0319,0.99753 0.68556,0.46009 1.08051,1.50114 0.96314,2.27023 -0.90888,0.89301 -2.90512,-0.17242 -3.78366,0.55037 -0.51774,1.2744 -0.51729,3.47084 1.20391,3.61172 1.1243,0.0679 2.99448,0.45029 3.06136,-1.0663 0.0216,-1.19258 0.91523,-1.90976 1.71991,-2.54546 0.65485,-0.40395 1.73486,-0.03 2.06384,-0.79116 0.9004,-0.52371 1.37152,0.79048 1.65111,1.27272 0.80476,0.42097 1.96511,0.96172 1.85751,1.96071 0.31547,0.42985 -1.23768,0.57145 -0.48157,1.23834 0.27575,-0.65393 1.51574,-0.9495 1.30709,-2.13264 -0.43333,-0.9589 -1.37689,-1.43391 -2.09826,-2.27028 -0.57823,-0.32453 -0.24364,-1.24842 0.24077,-0.55033 1.05868,0.68078 1.82168,1.60264 2.54545,2.54543 0.33087,0.79001 0.0291,2.22762 1.13513,2.23582 1.91373,0.0544 -0.25562,-1.74629 0.79115,-2.16701 0.96155,-0.0706 2.81744,0.45325 2.13263,-1.37589 -0.0353,-1.08228 0.38578,-2.85842 1.82307,-2.27023 0.43488,0.22955 1.02233,1.10282 1.4103,0.44718 1.3153,-1.29095 0.81927,1.32468 1.89185,1.30712 0.9994,0.0736 1.534,2.25996 0.0344,1.96066 -1.5587,0.80063 -2.17289,-1.32514 -3.15183,-0.69591 -0.7681,0.53116 -1.77258,0.59209 -2.24854,1.48709 -0.85666,0.0368 -1.21032,1.04952 -0.30955,1.27271 0.74234,0.75116 3.06507,-0.55453 2.84195,1.03177 -0.55685,1.4744 1.13927,-1.68272 0.94173,0.68811 -0.397,0.55474 -0.6783,1.13582 -1.3072,1.40957 -1.06085,0.14874 -2.19631,0.32395 -3.19894,0.27519 -0.88802,-0.27028 -1.57067,-1.49277 -2.51101,-0.99754 -0.14783,1.0116 -1.03652,1.4021 -1.85747,0.79112 -1.04703,-0.03 -1.34121,-1.14481 -2.33901,-1.13514 -0.40635,-0.92256 -0.26662,-2.53695 -1.85746,-1.96064 -1.08317,0.13302 -2.60673,-0.27738 -3.16454,0.75677 -1.00837,0.42641 -2.22664,0.69791 -3.19897,0.89437 -0.59387,0.5261 -1.29657,0.67688 -1.23834,1.6855 0.35578,1.69138 -2.27161,0.93457 -2.16705,2.54544 -0.31642,1.08521 -1.272,1.9642 -1.10073,3.23332 -0.14844,1.30655 0.50727,2.579 0.79162,3.78344 0.72378,0.31581 1.20303,0.8021 1.41033,1.61672 0.50254,0.80568 1.72869,1.12251 2.40783,1.61671 1.46553,0.0665 2.59092,-1.13908 4.02444,-1.10074 1.39144,-0.90593 1.93472,0.50948 2.81438,0.86174 1.67576,-0.057 0.52697,2.30457 1.21009,3.19715 0.39992,1.47855 2.04635,2.25461 1.37592,4.05888 -0.0766,1.40307 -1.60247,2.61212 -0.68798,4.05892 1.28517,1.29523 1.68094,3.21492 1.89192,5.022 0.43547,0.82035 0.39891,2.28352 1.58231,2.23587 1.10932,0.18812 2.74196,0.19471 3.54293,-0.58479 0.80465,-1.66096 2.48927,-2.98321 3.16465,-4.74688 0.5715,-0.77608 0.15425,-1.96652 0.10319,-2.78617 0.68857,-0.98079 2.57311,-0.95367 2.47663,-2.37342 0.39283,-1.25495 -0.34509,-2.03474 -0.61918,-3.09573 -0.24201,-1.66381 1.57157,-2.38811 2.44229,-3.40537 1.08333,-0.75547 2.19083,-1.41056 2.57985,-2.7518 0.32501,-0.6341 0.52285,-1.44884 0.58478,-2.23584 -0.93542,0.57738 -1.90313,1.04936 -3.16456,0.82557 -1.11167,-0.35968 -1.34587,-1.60998 -2.06389,-2.33908 -0.84322,-2.00797 -2.2422,-3.88875 -2.88948,-5.95072 -0.0226,-0.26139 -0.51238,-1.81963 -0.172,-1.20391 0.75405,1.39639 2.03856,2.33574 2.57987,4.0246 0.66681,1.41713 1.63391,2.38982 2.37348,3.64614 0.30219,0.94246 1.57292,0.84168 2.20146,0.17199 1.49113,-1.22819 3.86168,-1.30044 4.47165,-3.23344 0.62534,-1.34066 -1.00002,-2.95308 -2.16706,-1.92626 -1.34472,0.52721 -1.73317,-1.106 -2.51103,-1.6167 -0.63658,-0.42749 -0.25192,-1.75215 0.37839,-0.85992 1.12442,0.96433 2.92797,1.51481 4.60926,1.61673 1.43858,0.27357 2.8562,0.51777 4.1621,0.92876 1.0053,1.2282 2.0066,2.40298 2.06391,4.09334 0.84178,0.90679 1.03083,2.38436 1.68553,3.47421 0.83778,0.26334 0.63531,-1.50337 1.16954,-1.99504 0.62161,-1.47095 1.4427,-2.60835 2.54548,-3.74934 0.81025,-0.33638 1.78908,-1.70232 2.47528,-0.55051 0.13599,1.10478 1.45833,1.1275 1.78866,1.75429 0.33891,0.86735 0.40118,2.00069 1.68548,1.89189 -0.009,1.58595 -0.0631,3.31038 1.10075,4.33401 0.39638,1.40819 -1.42557,0.21118 -1.99502,-0.0344 -0.51271,0.75719 0.50439,1.41836 0.99756,1.99508 0.86525,0.93245 1.55209,1.92219 2.75179,2.51103 1.09886,1.14509 2.99668,2.23023 4.50605,1.4791 -0.45205,-0.47651 -2.04383,-0.0548 -2.75175,-0.72237 -1.19714,-0.65807 -1.59551,-2.24305 -2.44227,-3.13023 -0.23455,-0.58812 0.81544,-1.30278 0.0344,-1.96065 -0.48958,-1.34019 -1.45048,-2.40287 -1.51353,-3.88689 0.92103,-0.3765 1.59834,0.95609 2.57979,1.06632 1.99225,0.7494 2.02026,-1.91889 1.06631,-2.85496 -0.73683,-0.68173 -0.81489,-2.05385 0.13759,-2.47663 1.3179,-0.37785 0.1126,0.9958 0.37834,1.54789 1.54226,0.20496 0.35073,-2.08957 1.71989,-1.89188 1.96787,-0.2463 2.67825,-2.30647 3.64616,-3.71492 0.44562,-0.88915 0.092,-2.07568 -0.51624,-2.75165 -0.0939,-0.59836 1.32235,-1.19605 0.30959,-1.5135 -1.48624,-0.0781 -0.75357,-2.09345 0.55033,-1.54791 0.30368,0.88315 1.56264,0.0103 1.58229,1.16952 -0.13938,0.95205 0.74496,1.53449 0.99754,2.30462 1.62749,0.0294 0.39423,-2.18121 0.30955,-3.06136 0.50711,-1.45998 2.47997,-1.61083 3.19898,-2.99256 0.58751,-0.96449 1.70553,-1.37769 1.92628,-2.47663 0.24263,-0.735 0.5821,-1.70747 0.65357,-2.47662 0.75446,-0.024 0.6183,1.37069 0.82555,1.99504 0.30815,1.88555 0.37335,-2.18003 0.0688,-2.68296 -0.55215,-0.9503 -2.0658,-0.63855 -2.9926,-1.30715 -1.16433,-0.35258 -0.33246,-1.74465 0.516,-1.96067 0.81199,-0.53174 1.35699,-1.41988 2.02948,-2.09829 1.86447,-0.13782 4.07488,0.43284 5.57234,-0.65358 1.08574,-0.2682 1.32879,-1.71827 2.61426,-1.75432 -0.19307,1.4287 1.36628,0.28747 1.6855,-0.24081 0.11659,2.3782 -1.63792,3.99457 -3.2334,5.5036 -0.45098,0.9026 -1.26,3.06294 -0.30959,3.61169 1.01025,-1.09233 1.44906,-2.71293 2.54543,-3.81813 0.46625,-0.89537 0.2796,-2.22074 1.16955,-2.855 0.62502,-0.50545 2.38498,-1.22973 2.41187,-2.26712 1.13222,-2.62073 2.44177,-5.40465 0.1351,-7.86986 -0.60885,-0.98382 -2.93885,0.32451 -3.9234,-0.25032 -1.02742,-0.23871 -0.4276,-2.21885 -1.8231,-1.78866 -1.43222,0.55877 -3.18637,-0.48905 -3.61173,-1.92626 -0.62649,-1.05095 -2.57053,0.21147 -2.82059,-1.27272 -0.83177,-0.66038 -1.27077,0.69134 -1.65109,1.3071 -0.11389,1.76745 -2.19882,0.80603 -2.95815,1.44471 -0.40396,0.74621 -1.89722,0.45429 -2.16702,-0.37835 -0.5306,-1.01392 -0.0648,-1.93508 -0.0344,-2.92377 -0.481,-0.98763 -2.28149,-0.78232 -2.13267,0.4128 -0.71388,0.68817 -2.27564,0.25164 -2.57978,-0.75675 -1.24202,-0.30623 -2.90187,-0.0603 -4.09326,0.1376 -1.02461,0.98308 -1.15202,-0.28479 -0.0688,-0.89431 0.93581,-1.08073 2.93181,-1.77447 2.4422,-3.54292 -0.24096,-0.58676 -1.03052,-0.70719 -0.99702,-1.65091 -0.76765,-0.36159 -1.23574,0.40677 -1.92627,0.55038 -0.35203,-1.21565 -1.25882,-2.55509 -2.68297,-1.89183 -0.72814,0.99716 -0.27199,2.506 -1.92625,2.64862 -0.85107,0.0823 -1.46339,0.14874 -1.92626,0.92874 -0.71541,0.21943 -1.58195,0.53697 -1.99508,1.23831 -0.64403,0.37269 -1.76457,0.73995 -1.10071,1.71988 -0.44311,1.64098 -2.64701,0.26052 -3.16452,1.30711 1.01627,1.90132 -0.44878,1.87963 -2.13257,1.78864 -0.16183,1.52614 -1.64209,1.10048 -0.79117,-0.58475 -0.28516,-2.24005 -2.48344,-0.32585 -1.71962,0.85972 -0.49382,0.86006 -1.33357,0.53604 -0.61941,1.90735 0.5774,1.10545 0.63802,2.4471 0.13784,2.32344 -0.89337,-0.20916 -1.34415,-1.00186 -1.89191,-1.58231 -0.77266,-0.3893 -2.3407,-0.52555 -1.5823,0.96311 1.06126,1.32849 -1.29486,1.36834 -1.96066,0.75671 -0.86439,0.062 -2.31871,1.02782 -2.44223,-0.51595 9.9e-4,-0.65099 -1.35743,-0.96425 -0.92875,-2e-5 0.72648,-0.1166 1.25053,1.6207 0.41279,1.61668 -0.52495,0.19588 -0.97218,0.51539 -1.37593,0.75678 -0.7786,-0.46448 0.0797,-0.89267 0.1032,-1.41033 -0.31691,-1.27021 -1.82938,0.70188 -0.92874,1.37589 0.81242,0.89092 -0.8905,0.72306 -0.99761,1.42013 -0.50165,0.20048 -1.33853,0.3892 -1.30702,1.09092 -0.12072,0.49163 -0.81577,0.26239 -1.13468,0.68792 z"
             style="color:#000000;fill:#ffffff;fill-opacity:1;fill-rule:nonzero;stroke:none;stroke-width:7;marker:none;visibility:visible;display:inline;overflow:visible;enable-background:accumulate" />
          <path
             inkscape:connector-curvature="0"
             id="path4032"
             d="m 403.57489,943.3582 c -0.40031,1.35036 -2.38788,0.46457 -1.60527,2.57844 -0.73488,0.9172 -0.28203,2.96494 0.77838,2.72448 0.34164,-1.60036 1.02482,-3.04891 1.8484,-4.32943 0.23698,-0.47874 -0.98885,-2.14856 -1.02151,-0.97349 z"
             style="color:#000000;fill:#ffffff;fill-opacity:1;fill-rule:nonzero;stroke:none;stroke-width:7;marker:none;visibility:visible;display:inline;overflow:visible;enable-background:accumulate" />
          <path
             inkscape:connector-curvature="0"
             id="path4034"
             d="m 432.95611,947.83349 c 0.39767,2.10128 0.67436,4.11399 1.31381,6.08068 2.36363,0.75716 3.61242,-1.59472 5.78877,-1.70283 2.07691,-1.08958 2.94122,1.45823 4.62138,2.04323 0.40559,2.16354 3.37492,2.02975 4.52412,0.68105 1.40754,-1.57596 2.06877,-3.74332 2.0439,-5.83744 -1.46953,-1.98237 -3.60644,-3.48135 -4.47571,-6.12984 -1.0814,-1.09783 -0.70193,1.73559 -1.5568,2.14048 -1.19401,-0.16029 -1.59873,-1.67549 -2.28655,-2.23795 -1.18206,-0.73689 -2.29316,0.12871 -2.91884,0.92455 -1.70452,-0.43473 -3.48445,1.10215 -4.37826,2.33501 -0.76107,0.48102 -2.4311,0.71565 -2.67582,1.70306 z"
             style="color:#000000;fill:#ffffff;fill-opacity:1;fill-rule:nonzero;stroke:none;stroke-width:7;marker:none;visibility:visible;display:inline;overflow:visible;enable-background:accumulate" />
          <path
             inkscape:connector-curvature="0"
             id="path4036"
             d="m 448.1818,957.61101 c -1.969,-0.41655 0.11879,2.73203 0.43773,0.68113 -0.0819,-0.39314 0.55142,-1.19288 -0.43773,-0.68113 z"
             style="color:#000000;fill:#ffffff;fill-opacity:1;fill-rule:nonzero;stroke:none;stroke-width:7;marker:none;visibility:visible;display:inline;overflow:visible;enable-background:accumulate" />
          <path
             inkscape:connector-curvature="0"
             id="path4038"
             d="m 447.25757,938.5424 c -1.49125,-0.6822 -5.28868,-2.12984 -5.83739,-0.77862 0.75779,1.54687 2.18984,-0.0665 2.0432,1.3623 0.51204,0.87438 2.0527,2.39266 3.1621,1.8973 -0.32559,-1.9069 3.1312,1.57877 2.52958,-0.43795 -0.7026,-0.7559 -1.85959,-0.77152 -1.89749,-2.04303 z"
             style="color:#000000;fill:#ffffff;fill-opacity:1;fill-rule:nonzero;stroke:none;stroke-width:7;marker:none;visibility:visible;display:inline;overflow:visible;enable-background:accumulate" />
          <path
             inkscape:connector-curvature="0"
             id="path4040"
             d="m 437.09089,938.00732 c 0.42504,1.01602 0.22719,1.99796 -0.77834,1.02141 -0.91117,-0.83655 -1.17148,-2.42304 0.53506,-2.38389 1.67604,-0.62704 1.35668,0.95635 0.24328,1.36248 z"
             style="color:#000000;fill:#ffffff;fill-opacity:1;fill-rule:nonzero;stroke:none;stroke-width:7;marker:none;visibility:visible;display:inline;overflow:visible;enable-background:accumulate" />
          <path
             inkscape:connector-curvature="0"
             id="path4042"
             d="m 438.69615,940.97462 c -0.77032,-0.13375 -4.55107,0.13027 -3.40506,0.53547 0.7537,-0.3091 3.85157,0.90011 3.40506,-0.53547 z"
             style="color:#000000;fill:#ffffff;fill-opacity:1;fill-rule:nonzero;stroke:none;stroke-width:7;marker:none;visibility:visible;display:inline;overflow:visible;enable-background:accumulate" />
          <path
             inkscape:connector-curvature="0"
             id="path4044"
             d="m 433.88035,938.9802 c -1.13111,-0.43196 -2.86309,-0.64933 -3.06485,-1.94585 1.26928,-0.82679 3.01485,-0.78845 3.21075,-2.57812 1.49618,-1.56964 1.38217,2.47507 0.53487,3.21058 -0.25976,0.53017 -0.50745,0.76512 -0.68077,1.31339 z"
             style="color:#000000;fill:#ffffff;fill-opacity:1;fill-rule:nonzero;stroke:none;stroke-width:7;marker:none;visibility:visible;display:inline;overflow:visible;enable-background:accumulate" />
          <path
             inkscape:connector-curvature="0"
             id="path4046"
             d="m 436.9936,929.59183 c -0.70936,-1.64208 -1.28971,1.0634 -0.53508,1.55703 1.40807,0.21579 0.0129,4.54899 2.43232,2.43217 -0.29181,-1.20902 -0.85739,-2.36461 -1.89724,-3.25929 -0.40617,0.14627 -1.65707,0.72125 0,-0.72972 l 0,-1.9e-4 z"
             style="color:#000000;fill:#ffffff;fill-opacity:1;fill-rule:nonzero;stroke:none;stroke-width:7;marker:none;visibility:visible;display:inline;overflow:visible;enable-background:accumulate" />
          <path
             inkscape:connector-curvature="0"
             id="path4048"
             d="m 446.18739,914.56071 c -1.39891,2.80169 2.81888,0.81667 0.53519,-0.0487 -0.42839,-0.004 -0.61115,-0.2312 -0.53509,0.0487"
             style="color:#000000;fill:#ffffff;fill-opacity:1;fill-rule:nonzero;stroke:none;stroke-width:7;marker:none;visibility:visible;display:inline;overflow:visible;enable-background:accumulate"
             sodipodi:nodetypes="ccc" />
          <path
             inkscape:connector-curvature="0"
             id="path4050"
             d="m 445.50637,916.94428 c -0.55947,1.29719 -1.19385,3.20545 -2.87012,3.16183 -0.62812,-0.0215 -3.11145,1.86158 -1.1674,1.36219 1.42142,-0.36238 2.22374,-1.77097 3.79447,-1.84863 0.69164,-0.31714 1.46221,-2.6455 0.24305,-2.67539 z"
             style="color:#000000;fill:#ffffff;fill-opacity:1;fill-rule:nonzero;stroke:none;stroke-width:7;marker:none;visibility:visible;display:inline;overflow:visible;enable-background:accumulate" />
          <path
             inkscape:connector-curvature="0"
             id="path4052"
             d="m 446.09011,882.94185 c -1.41599,-0.8424 -3.43392,0.13311 -1.82412,1.79964 1.14234,0.62265 3.61322,-0.10449 2.72418,-1.55636 -0.29739,-0.0138 -0.66511,-0.37436 -0.90006,-0.24328 z"
             style="color:#000000;fill:#ffffff;fill-opacity:1;fill-rule:nonzero;stroke:none;stroke-width:7;marker:none;visibility:visible;display:inline;overflow:visible;enable-background:accumulate" />
          <path
             inkscape:connector-curvature="0"
             id="path4056"
             d="m 448.98445,883.96338 c -1.15636,-0.8272 -0.54022,1.59057 0.60802,0.82664 0.0679,-0.25903 -0.0934,-0.46394 -0.26759,-0.58381"
             style="color:#000000;fill:#ffffff;fill-opacity:1;fill-rule:nonzero;stroke:none;stroke-width:7;marker:none;visibility:visible;display:inline;overflow:visible;enable-background:accumulate" />
          <path
             inkscape:connector-curvature="0"
             id="path4058"
             d="m 445.79823,886.34695 c -0.0428,0.98168 1.20982,1.36382 0.5594,0.0244 -0.13936,-0.11775 -0.4242,-0.29201 -0.5594,-0.0244 z"
             style="color:#000000;fill:#ffffff;fill-opacity:1;fill-rule:nonzero;stroke:none;stroke-width:7;marker:none;visibility:visible;display:inline;overflow:visible;enable-background:accumulate" />
          <path
             inkscape:connector-curvature="0"
             id="path4060"
             d="m 424.25209,871.29156 c -0.53844,1.11934 -1.49814,2.78587 -0.36161,3.801 0.16497,-0.60695 1.25681,-1.49461 0.60243,-0.32692 -0.56934,1.09487 0.19709,2.64675 1.53065,1.89161 1.0631,-0.07 0.80543,2.27635 2.30497,1.84062 1.84116,-0.26218 1.19373,-3.52547 -0.56774,-2.3735 -0.71719,1.66231 -0.96341,-0.0249 -0.80849,-1.0662 0.34423,-1.19761 -0.8595,-1.52606 -1.73702,-1.15237 -0.19407,-1.01048 1.81696,-2.4116 8e-5,-2.7178 -0.29481,-0.0353 -0.74834,-0.12716 -0.96327,0.10359 z"
             style="color:#000000;fill:#ffffff;fill-opacity:1;fill-rule:nonzero;stroke:none;stroke-width:7;marker:none;visibility:visible;display:inline;overflow:visible;enable-background:accumulate" />
          <path
             inkscape:connector-curvature="0"
             id="path4062"
             d="m 373.42698,986.59587 c 2.54083,-1.08242 5.61705,-5.04011 8.6715,-4.58108 2.46121,0.0919 4.98663,-0.0192 7.24088,-0.55037 1.66836,1.96955 4.15045,0.1942 6.12264,0.27517 0.95272,-2.40944 2.48934,0.28064 3.92123,-0.344 2.37323,-1.53883 4.37192,-3.2828 6.67304,-4.74679 2.01298,-0.4572 2.83895,1.84596 4.88435,1.65111 2.27614,-0.12845 4.14849,0.25687 4.4028,2.68297 2.421,0.13109 4.27083,-3.63993 6.87938,-2.47658 1.80675,0.33809 3.13909,-1.32945 3.85244,-1.85744 1.54558,1.44065 5.6194,-1.01072 5.84747,1.58226 0.99673,-2.64284 3.58251,0.66608 5.79344,-0.34396 3.12468,0.31636 6.25888,-1.25899 9.06597,0.68794 2.60863,1.14826 6.21961,1.87239 8.39366,3.1717 1.62163,0.60929 3.90161,1.62354 4.12679,3.50127 -1.29193,0.89699 -2.86739,1.27771 -4.40279,1.44468"
             style="color:#000000;fill:#ffffff;fill-opacity:1;fill-rule:nonzero;stroke:none;stroke-width:7;marker:none;visibility:visible;display:inline;overflow:visible;enable-background:accumulate"
             sodipodi:nodetypes="cccccccccccccccc" />
        </g>
      </g>
      <g
         transform="translate(-20,18)"
         id="g4417">
        <path
           style="color:#000000;fill:#aa0000;fill-opacity:1;fill-rule:nonzero;stroke:none;stroke-width:1;marker:none;visibility:visible;display:inline;overflow:visible;enable-background:accumulate"
           d="m 498.13116,786.84477 9.91672,0 0,-221.0505 -10.03978,-11.64587 z"
           id="path3087"
           inkscape:connector-curvature="0"
           sodipodi:nodetypes="ccccc" />
        <rect
           style="color:#000000;fill:#f00000;fill-opacity:1;fill-rule:nonzero;stroke:none;stroke-width:1;marker:none;visibility:visible;display:inline;overflow:visible;enable-background:accumulate"
           id="rect3061"
           width="232.21342"
           height="232.21342"
           x="265.91873"
           y="554.22919" />
        <text
           xml:space="preserve"
           style="font-size:196.13687134px;font-style:normal;font-variant:normal;font-weight:bold;font-stretch:normal;text-indent:0;text-align:end;text-decoration:none;line-height:normal;letter-spacing:normal;word-spacing:normal;text-transform:none;direction:ltr;block-progression:tb;writing-mode:lr-tb;text-anchor:end;baseline-shift:baseline;color:#000000;fill:#ffffff;fill-opacity:1;fill-rule:nonzero;stroke:none;stroke-width:1;marker:none;visibility:visible;display:inline;overflow:visible;enable-background:accumulate;font-family:Sans;-inkscape-font-specification:Sans Bold"
           x="436.94952"
           y="740.53522"
           id="text3091"><tspan
             sodipodi:role="line"
             id="tspan3093"
             x="436.94952"
             y="740.53522">#</tspan></text>
      </g>
      <g
         transform="translate(0,18)"
         id="g4404">
        <path
           sodipodi:nodetypes="ccccc"
           inkscape:connector-curvature="0"
           id="path3083"
           d="m 13.852949,786.4411 -9.7889208,1.57356 0,-222.22039 9.8509898,-11.64587 z"
           style="color:#000000;fill:#003b92;fill-opacity:1;fill-rule:nonzero;stroke:none;stroke-width:1;marker:none;visibility:visible;display:inline;overflow:visible;enable-background:accumulate" />
        <rect
           y="554.22919"
           x="13.862233"
           height="232.21342"
           width="232.21342"
           id="rect3057"
           style="color:#000000;fill:#0055d4;fill-opacity:1;fill-rule:nonzero;stroke:none;stroke-width:1;marker:none;visibility:visible;display:inline;overflow:visible;enable-background:accumulate" />
        <g
           id="g4400">
          <path
             sodipodi:nodetypes="ccczcc"
             inkscape:connector-curvature="0"
             id="path3122"
             d="m 48.264394,745.53682 109.127626,0 c 0,-13.63296 0.99485,-52.97766 -41.98519,-52.97766 22.26501,-10.39909 13.99685,-56.14997 -12.57862,-56.14997 -26.575477,0 -33.38466,46.21257 -12.578608,56.14997 -43.377454,0 -41.985208,39.18349 -41.985208,52.97766 z"
             style="color:#000000;fill:none;stroke:#ffffff;stroke-width:6.76131964;stroke-linecap:butt;stroke-linejoin:round;stroke-miterlimit:4;stroke-dasharray:none;marker:none;visibility:visible;display:inline;overflow:visible;enable-background:accumulate" />
          <path
             style="color:#000000;fill:none;stroke:#ffffff;stroke-width:6.76131964;stroke-linecap:butt;stroke-linejoin:round;stroke-miterlimit:4;stroke-dasharray:none;marker:none;visibility:visible;display:inline;overflow:visible;enable-background:accumulate"
             d="m 146.0764,704.26257 65.60022,0 c 0,-13.63295 0.99485,-52.97765 -41.9852,-52.97765 22.26502,-10.39909 13.99686,-56.14997 -12.57861,-56.14997 -26.57547,0 -33.38467,46.21257 -12.57861,56.14997 -7.59428,0 -13.81632,1.20102 -18.91385,3.25653"
             id="path3892"
             inkscape:connector-curvature="0"
             sodipodi:nodetypes="ccczcc" />
        </g>
      </g>
      <path
         sodipodi:nodetypes="cc"
         inkscape:connector-curvature="0"
         id="path4505"
         d="m 4.0546618,805.45572 484.0062282,0"
         style="color:#000000;fill:none;stroke:#003b92;stroke-width:4.82951403;stroke-linecap:butt;stroke-miterlimit:4;stroke-opacity:1;stroke-dasharray:none;marker:none;visibility:visible;display:inline;overflow:visible;enable-background:accumulate" />
      <path
         style="color:#000000;fill:none;stroke:#003b92;stroke-width:4.82951403;stroke-linecap:butt;stroke-miterlimit:4;stroke-opacity:1;stroke-dasharray:none;marker:none;visibility:visible;display:inline;overflow:visible;enable-background:accumulate"
         d="m 245.84648,1038.4379 0,-466.17364"
         id="path4507"
         inkscape:connector-curvature="0"
         sodipodi:nodetypes="cc" />
    </g>
    <path
       style="opacity:0.63716814;color:#000000;fill:url(#linearGradient3901);fill-opacity:1;fill-rule:nonzero;stroke:none;stroke-width:5;marker:none;visibility:visible;display:inline;overflow:visible;enable-background:accumulate"
       d="m 15.50116,555.00896 480.99766,0 10.02649,11.97548 -0.007,430.29344 -10.33594,40.44532 -480.68125,-0.01 -10.05038,-40.4367 0.004,-430.29055 z"
       id="rect3044"
       inkscape:connector-curvature="0"
       sodipodi:nodetypes="ccccccccc" />
  </g>
</svg>
