<?xml version="1.0" encoding="UTF-8" standalone="no"?>
<!-- Created with Inkscape (http://www.inkscape.org/) -->

<svg
   xmlns:dc="http://purl.org/dc/elements/1.1/"
   xmlns:cc="http://creativecommons.org/ns#"
   xmlns:rdf="http://www.w3.org/1999/02/22-rdf-syntax-ns#"
   xmlns:svg="http://www.w3.org/2000/svg"
   xmlns="http://www.w3.org/2000/svg"
   xmlns:sodipodi="http://sodipodi.sourceforge.net/DTD/sodipodi-0.dtd"
   xmlns:inkscape="http://www.inkscape.org/namespaces/inkscape"
   width="512"
   height="512"
   id="svg2"
   version="1.1"
   inkscape:version="0.48.5 r10040"
   sodipodi:docname="ic_notif.svg"
   inkscape:export-filename="C:\Users\surrel\ownCloud\androidStudio_workspace_perso\FacebookNotifications\app\src\main\ic_notif.png"
   inkscape:export-xdpi="45"
   inkscape:export-ydpi="45">
  <defs
     id="defs4">
    <inkscape:perspective
       sodipodi:type="inkscape:persp3d"
       inkscape:vp_x="193.92091 : 120.07413 : 1"
       inkscape:vp_y="5.1431211e-014 : 839.96316 : 0"
       inkscape:vp_z="780.22706 : 125.51116 : 1"
       inkscape:persp3d-origin="474.68963 : 181.54074 : 1"
       id="perspective2987" />
  </defs>
  <sodipodi:namedview
     id="base"
     pagecolor="#ffffff"
     bordercolor="#666666"
     borderopacity="1.0"
     inkscape:pageopacity="0.0"
     inkscape:pageshadow="2"
     inkscape:zoom="1.1704838"
     inkscape:cx="145.61319"
     inkscape:cy="164.07945"
     inkscape:document-units="px"
     inkscape:current-layer="layer1"
     showgrid="false"
     inkscape:window-width="1920"
     inkscape:window-height="1178"
     inkscape:window-x="1912"
     inkscape:window-y="-8"
     inkscape:window-maximized="1" />
  <metadata
     id="metadata7">
    <rdf:RDF>
      <cc:Work
         rdf:about="">
        <dc:format>image/svg+xml</dc:format>
        <dc:type
           rdf:resource="http://purl.org/dc/dcmitype/StillImage" />
        <dc:title></dc:title>
      </cc:Work>
    </rdf:RDF>
  </metadata>
  <g
     inkscape:label="Layer 1"
     inkscape:groupmode="layer"
     id="layer1"
     transform="translate(0,-540.36218)">
    <path
       style="color:#000000;fill:#ffffff;fill-opacity:1;fill-rule:nonzero;stroke:none;stroke-width:1;marker:none;visibility:visible;display:inline;overflow:visible;enable-background:accumulate"
       d="m 0,837.36214 0,215.00006 215,0 0,-215.00006 z m 107.51424,40.95509 c 19.85162,0 37.86271,5.07586 51.15114,13.49981 13.28846,8.42394 22.0155,20.48266 22.0155,34.14822 0,13.66558 -8.72704,25.72432 -22.0155,34.14825 -13.28843,8.42391 -31.3119,14.20096 -51.15114,13.49978 -24.929488,-0.88107 -73.186523,18.39145 -54.540337,37.79381 -26.832207,-13.1859 17.624019,-41.51221 3.360709,-51.29359 -12.975576,-8.89833 -22.015497,-20.48267 -22.015497,-34.14825 0,-13.66556 8.727052,-25.72428 22.015497,-34.14822 13.288454,-8.42395 31.328007,-13.49981 51.179628,-13.49981 z"
       id="rect3047"
       inkscape:connector-curvature="0"
       sodipodi:nodetypes="cccccssssscssss" />
    <path
       style="color:#000000;fill:#ffffff;fill-opacity:1;fill-rule:nonzero;stroke:none;stroke-width:1;marker:none;visibility:visible;display:inline;overflow:visible;enable-background:accumulate"
       d="m 297,837.36214 0,215.00006 215,0 0,-215.00006 -215,0 z m 33.37924,43.31898 148.24152,0 a 3.1901453,3.1901453 0 0 1 3.18981,3.18983 l 0,121.95385 a 3.1901453,3.1901453 0 0 1 -3.18981,3.19 l -148.24152,0 a 3.1901453,3.1901453 0 0 1 -3.18981,-3.19 l 0,-121.95385 a 3.1901453,3.1901453 0 0 1 3.18981,-3.18983 z m 3.18984,6.37964 0,115.57424 76.24255,0 -12.0473,-0.3418 c 2.35232,-1.0019 3.97904,-2.64648 6.80687,-2.2214 2.2786,0.085 4.60595,-0.021 6.69294,-0.51257 1.54459,1.82337 3.84179,0.18132 5.66765,0.25611 0.88203,-2.23049 2.31986,0.26506 3.6455,-0.31314 2.19714,-1.42483 4.04991,-3.05917 6.1803,-4.41455 1.86361,-0.42325 2.63477,1.71823 4.52841,1.53788 2.10725,-0.1188 3.83729,0.23179 4.07273,2.47799 2.24134,0.12127 3.93619,-3.35559 6.35115,-2.27859 1.67272,0.31313 2.92815,-1.24846 3.58857,-1.73728 1.43091,1.33375 5.20019,-0.91959 5.41132,1.48106 0.92277,-2.4468 3.30746,0.62187 5.35435,-0.31335 2.89283,0.29301 5.80297,-1.17591 8.40177,0.6266 2.41507,1.06305 5.73398,1.73054 7.74674,2.93338 1.06134,0.39906 2.43518,0.98486 3.21829,1.90846 l 0,-114.66304 -141.86184,0 z m 59.09723,2.16454 c 0.95024,-0.01 1.01479,1.79202 1.62341,2.36389 0.54714,0.46778 1.4282,1.01686 1.82275,1.45249 -1.10418,1.18546 -3.16872,1.31303 -4.72779,1.87974 0.40941,0.45162 2.3613,0.0817 3.30374,-0.37026 1.22111,0.0688 -0.32646,4.5053 1.76581,2.16451 0.93516,-0.43562 1.47788,-2.36105 2.64869,-1.16768 1.19934,1.39902 -1.34476,2.63611 -0.85441,3.84488 -1.88059,-0.17581 -2.51,1.30768 -1.6234,2.36389 -1.35747,0.79424 -0.8652,2.69761 -0.057,3.87335 2.6984,1.14711 -2.41739,1.41668 -0.71203,1.90821 1.17736,0.12739 0.87975,2.24409 0.37026,3.16135 -0.9631,0.27951 -0.83943,0.61426 -0.82594,1.39554 -0.77011,0.41167 -1.62898,0.87097 -0.76898,2.0506 1.0503,0.14792 0.54388,2.168 -0.0285,1.76581 -2.16114,-1.13237 0.0388,1.00952 0.45568,1.25313 -1.62643,1.49251 -3.76778,2.99351 -5.95244,4.01576 -2.27867,1.22775 -1.69677,3.69114 -2.93351,5.66765 -2.31952,0.15166 -2.8184,-2.46997 -3.47462,-4.32905 -1.14907,-1.46778 -0.75437,-3.74693 0.2848,-4.67083 0.26898,-1.43538 -2.32076,-0.27574 -0.19936,-2.07908 -1.2423,-0.31724 -1.5068,-2.00064 -1.65187,-3.78792 -0.88939,-0.86489 0.0476,-2.78742 -1.16772,-3.18982 -1.32867,-1.47083 -3.48606,-0.26699 -4.95561,-1.48099 -0.11722,-1.86255 2.28873,-1.72901 -0.59808,-2.07909 -1.1243,-2.30197 1.83738,-2.40028 2.56323,-3.95879 0.6022,-0.81345 0.50598,-1.10876 -0.8544,-0.79745 -0.91656,-0.9522 1.37889,-0.82223 1.05378,-2.39239 1.02988,-0.5494 1.59112,-1.19089 1.3101,-2.56324 1.15768,0.21426 1.77179,-1.32487 2.70565,-1.19618 0.93185,1.4657 1.01207,-0.41361 1.50948,-1.16771 1.61835,-0.13373 1.5813,2.16295 2.70565,2.44933 -0.50883,-1.69965 -1.40946,-3.12641 1.05378,-3.07591 -2.75021,-0.68241 -0.51965,-2.04669 1.05378,-1.11073 -0.81754,-0.5341 -0.0505,-1.7225 1.05379,-1.76581 0.85888,-0.3084 2.14185,0.42352 3.27528,-0.0855 0.33251,-0.23178 0.60664,-0.33958 0.82592,-0.34177 z m -18.9396,2.05059 c 0.44915,0.0162 0.88957,0.0999 1.31011,0.3133 3.83637,-0.0566 3.80336,3.28092 1.96517,4.58538 0.36011,0.0267 -0.35421,1.66901 -1.08227,2.05058 -0.32139,1.76263 -1.52086,2.99676 -3.30374,3.04744 -0.31392,1.3228 1.42117,4.47884 -1.59492,4.72779 3.03617,2.06546 -4.59552,0.75393 -4.27208,2.67716 2.19777,-0.96144 7.35865,2.27878 2.05059,2.16453 1.39811,-1.1238 -0.39666,-0.93513 -0.25633,-1.53796 -1.78377,-1.09503 -5.55337,2.61188 -3.36069,-0.51265 2.23248,-1.24356 -3.01304,-2.0011 -0.45569,-2.42085 0.2638,1.80348 6.10374,-1.23433 3.93032,-1.65188 -1.45341,-0.58886 1.55345,-2.0748 -0.1139,-3.70247 -0.65208,-1.65191 0.7326,-0.75245 2.10756,-1.87972 2.51536,-1.78671 0.80681,-0.91801 -1.59489,-0.39874 -1.30754,-0.93321 -4.01327,-1.67433 -2.42087,-3.56006 1.28144,-0.2606 3.17228,-1.11708 3.81641,-2.42084 0.57215,-0.80231 1.9278,-1.52939 3.27526,-1.48101 z m 55.053,4.24362 c 0.364,-0.014 0.68701,0.50191 0.11387,1.02528 -0.97386,2.12105 1.78653,1.24021 2.76263,0.65508 0.6776,1.44882 -1.92494,1.95907 -2.99047,2.10757 -0.68639,0.45805 -2.46303,0.76299 -1.50947,-0.22787 0.96662,-0.42157 1.99449,-1.1855 -0.37025,-0.91137 -0.25517,-1.00094 2.03298,-0.47227 1.45253,-1.93668 0.0818,-0.49522 0.32272,-0.70363 0.54113,-0.71201 z m 15.23712,1.90819 c 0.16394,-10e-4 0.34771,0.0123 0.48416,0.0285 1.68208,0.28349 -0.17966,1.59927 0,2.53477 0.81241,-0.34597 1.91359,-0.055 1.5949,1.05378 -0.14341,0.96404 0.0766,2.5358 0.74052,0.99683 1.63077,-1.0665 2.24566,1.95027 0.54113,2.193 -1.38829,0.40339 -1.15184,-1.77364 -2.13605,-1.70884 -1.23463,0.69912 -1.95112,-0.75216 -1.42404,-1.76579 0.60584,-1.08105 -0.38841,-0.24862 -0.54112,0.3133 -1.05221,-0.93983 -0.18521,-2.46684 0.31328,-3.50312 0.0996,-0.10685 0.26326,-0.14105 0.42722,-0.14241 z m -78.91972,0.057 c 1.03552,0.18169 1.71494,0.58236 2.39235,1.48099 -0.85896,1.43896 1.78073,2.84024 0.25633,3.84488 0.22147,1.58253 -2.93616,2.13812 -2.50629,0.0285 0.51237,-1.8789 -1.65903,-1.96959 -1.62339,-3.33223 0.80031,-0.50647 0.43515,-1.80571 1.481,-2.02212 z m 60.57822,0.37024 c 0.43274,0.0174 0.43894,0.43147 0.0854,0.93987 -0.52053,2.33353 -3.07054,-1.24101 -0.56961,-0.82595 0.10395,-0.0347 0.20106,-0.0708 0.28479,-0.0855 0.0802,-0.014 0.13756,-0.031 0.19938,-0.0285 z m -13.12956,1.3386 c 0.0598,-0.0111 0.13105,-0.003 0.19937,0 0.18215,0.01 0.40022,0.0589 0.65505,0.19936 0.78463,-0.14272 2.84261,-0.0514 2.42084,1.05378 -0.50887,0.59298 -0.48544,2.00121 -1.79427,1.31011 -0.53494,-0.28953 -1.26652,-0.45996 -1.53796,-0.8829 -1.03047,1.47569 1.21179,1.84229 1.02531,3.2183 2.14115,0.20723 -0.18573,2.99663 -0.2848,0.71202 -0.53173,-1.53434 -1.54463,0.52675 -1.70886,1.28164 -0.52459,1.37433 -1.84361,0.5129 -1.22466,-0.82595 -0.13781,-0.78482 1.37162,-2.23695 -0.17088,-1.31011 -0.74452,-0.01 -1.99287,-0.8407 -1.1677,-1.59492 -0.92079,-0.64115 -0.1273,-1.57132 0.54114,-2.05061 1.12422,0.73641 1.11137,0.1377 2.13603,-0.1424 0.27568,-0.46446 0.49329,-0.89165 0.91139,-0.96832 z m -51.37901,2.44932 c 0.46112,0.005 0.99786,0.36718 1.05379,1.02531 l 0.31329,0.39872 0,0.91139 c 0.81954,0.26531 0.39314,2.12039 -0.22783,0.85441 -1.11348,-0.23814 -1.31974,-1.01275 -1.70885,-2.07908 -0.27894,-0.76998 0.10848,-1.11622 0.5696,-1.11075 z m 2.50631,1.13922 c 0.15031,-0.0373 0.31069,0.14388 0.39872,0.25632 -0.26442,1.10611 1.75433,2.09986 0.8829,2.87654 -1.07204,0.0241 -1.8661,-2.07447 -1.42402,-3.01893 0.0458,-0.0716 0.0923,-0.10136 0.1424,-0.1139 z m -5.72461,0.37025 c 2.58115,-0.18775 -1.44281,1.80828 0,0 z m -0.39871,1.59492 c 0.009,-0.008 0.0199,0.005 0.0285,0 0.06,-0.0356 0.13538,-0.0173 0.22785,0.17089 2.97928,0.47975 -1.78617,1.75112 -0.22785,-0.17089 l -0.22784,0.25632 c 0.0791,-0.0643 0.13292,-0.19606 0.19937,-0.25632 z m 89.62842,0.48417 c 1.04842,-0.15862 1.73695,0.92341 2.02213,1.90821 0.63927,-0.13296 1.08359,-0.84743 1.79427,-0.51267 -0.0311,0.87371 0.68828,0.99475 0.91138,1.53796 0.45328,1.63725 -1.3836,2.27472 -2.24996,3.27529 -1.00286,0.56426 -0.89163,1.73604 0.057,0.82591 1.103,-0.18315 2.63806,-0.39742 3.78792,-0.1139 0.28158,0.9336 1.73145,1.32065 2.39238,0.68356 -0.13778,-1.10645 1.51984,-1.28462 1.96515,-0.37026 -0.0283,0.91532 -0.46273,1.76697 0.0285,2.70566 0.24979,0.77087 1.64814,1.03261 2.02212,0.34176 0.703,-0.59127 2.62871,0.29772 2.73414,-1.33859 0.35208,-0.57005 0.76789,-1.80757 1.53795,-1.19617 0.2315,1.37406 2.01173,0.19472 2.59174,1.1677 0.39377,1.33057 2.03476,2.31158 3.3607,1.79427 1.29197,-0.39824 0.72916,1.43089 1.68035,1.65188 0.91152,0.53219 2.22745,-0.56904 2.7911,0.34176 0.71794,2.2823 0.49726,5.06414 0.19937,7.4904 -0.025,0.96042 -1.13019,1.29787 -1.70883,1.7658 -0.82392,0.58721 -0.65061,1.81975 -1.08226,2.64871 -1.01503,1.02317 -1.42861,2.5203 -2.36388,3.53159 -0.8799,-0.50805 -0.13274,-2.49661 0.2848,-3.33225 1.47709,-1.39707 3.09838,-2.89628 2.99044,-5.09801 -0.29551,0.48907 -1.74516,1.55051 -1.56642,0.22784 -1.19009,0.0335 -1.41566,1.3751 -2.42085,1.6234 -1.38636,1.00582 -3.42887,0.47048 -5.15498,0.59809 -0.6226,0.62806 -1.12797,1.4444 -1.87973,1.93669 -0.78549,0.19997 -1.56211,1.49633 -0.48417,1.82275 0.85805,0.61899 2.27994,0.34488 2.79111,1.22467 0.28193,0.4656 0.19985,4.22344 -0.0856,2.4778 -0.19187,-0.57801 -0.0421,-1.87356 -0.74051,-1.85123 -0.0663,0.71208 -0.40194,1.62645 -0.62657,2.30691 -0.20437,1.0174 -1.22186,1.38553 -1.7658,2.27845 -0.66565,1.27922 -2.49249,1.41097 -2.96197,2.76262 0.0784,0.81486 1.22191,2.87531 -0.2848,2.84805 -0.23385,-0.71296 -1.06891,-1.25464 -0.93987,-2.13603 -0.0182,-1.07308 -1.17136,-0.26464 -1.4525,-1.08226 -1.20717,-0.50506 -1.88862,1.35175 -0.51265,1.42402 0.9376,0.2939 -0.37176,0.84159 -0.28481,1.39555 0.56316,0.62582 0.89671,1.74008 0.48416,2.56326 -0.89609,1.30394 -1.56733,3.21812 -3.38918,3.44617 -1.26757,-0.18302 -0.16709,1.92705 -1.59493,1.7373 -0.24602,-0.51114 0.87835,-1.77385 -0.34176,-1.42404 -0.88179,0.39143 -0.82456,1.6473 -0.1424,2.27845 0.88318,0.86662 0.87608,3.34251 -0.96834,2.64871 -0.90863,-0.10223 -1.53969,-1.34541 -2.39237,-0.99683 0.0584,1.37389 0.94229,2.3763 1.39554,3.61703 0.72313,0.60906 -0.2456,1.27826 -0.0285,1.82276 0.78396,0.82136 1.14166,2.26731 2.24998,2.87653 0.65539,0.61812 2.14474,0.2424 2.56327,0.68355 -1.39738,0.69538 -3.16933,-0.30695 -4.18667,-1.36708 -1.11067,-0.54515 -1.73371,-1.47213 -2.53476,-2.3354 -0.45658,-0.53392 -1.38605,-1.15024 -0.91137,-1.85124 0.52718,0.22731 2.18973,1.33219 1.82275,0.0285 -1.07749,-0.94769 -1.00413,-2.5475 -0.99683,-4.01579 -1.189,0.10083 -1.25268,-0.9343 -1.56642,-1.7373 -0.30582,-0.58029 -1.52598,-0.60059 -1.65188,-1.62339 -0.6353,-1.06637 -1.5568,0.20123 -2.30693,0.51265 -1.02095,1.05633 -1.78842,2.11283 -2.36389,3.47463 -0.4946,0.4552 -0.30664,2.09502 -1.08227,1.85124 -0.60611,-1.00898 -0.75862,-2.3788 -1.53794,-3.2183 -0.0532,-1.56493 -0.97751,-2.65087 -1.9082,-3.78792 -1.209,-0.38049 -2.54152,-0.62964 -3.87336,-0.8829 -1.55655,-0.0945 -3.2311,-0.58822 -4.27208,-1.481 -0.58355,-0.82604 -0.93112,0.40168 -0.34179,0.79746 0.72014,0.4728 1.0905,1.96907 2.33541,1.48098 1.08047,-0.95064 2.57259,0.5531 1.99365,1.79427 -0.56472,1.78957 -2.7492,1.8534 -4.12969,2.99047 -0.58189,0.62001 -1.77083,0.70166 -2.05058,-0.17089 -0.68473,-1.16311 -1.57569,-2.04872 -2.19303,-3.36069 -0.50116,-1.56357 -1.69426,-2.4382 -2.39236,-3.73096 -0.31514,-0.57004 0.14993,0.86875 0.17088,1.11075 0.59925,1.90898 1.89652,3.66623 2.67716,5.52523 0.66474,0.67499 0.87902,1.83151 1.90823,2.16452 1.16782,0.20718 2.06747,-0.23444 2.93348,-0.76896 -0.0575,0.72859 -0.24023,1.49201 -0.54113,2.07907 -0.36015,1.24172 -1.38942,1.83537 -2.39235,2.53477 -0.80614,0.94178 -2.50251,1.62099 -2.27846,3.16135 0.25376,0.98223 0.96179,1.68623 0.5981,2.84807 0.0894,1.31438 -1.66947,1.285 -2.30694,2.193 0.0473,0.75883 0.44365,1.87322 -0.0854,2.59172 -0.62527,1.6328 -2.18854,2.84829 -2.9335,4.38601 -0.74153,0.72167 -2.24826,0.71531 -3.27526,0.54115 -1.09559,0.0441 -1.07784,-1.29113 -1.48099,-2.05063 -0.19532,-1.67298 -0.54751,-3.47167 -1.73731,-4.67081 -0.84664,-1.33943 0.55567,-2.46047 0.62656,-3.75944 0.62071,-1.6704 -0.91137,-2.3621 -1.28162,-3.73095 -0.63244,-0.82636 0.44068,-3.01475 -1.11075,-2.96198 -0.81437,-0.32612 -1.30353,-1.63616 -2.59174,-0.79745 -1.32714,-0.0355 -2.37416,1.05832 -3.73094,0.99681 -0.62878,-0.45753 -1.78472,-0.7351 -2.24998,-1.48099 -0.19191,-0.75419 -0.61154,-1.2171 -1.28162,-1.50948 -0.26324,-1.11507 -0.87792,-2.29349 -0.74051,-3.50311 -0.15855,-1.17493 0.73236,-1.98577 1.02531,-2.99047 -0.0968,-1.49134 2.32303,-0.79798 1.99364,-2.36388 -0.054,-0.93377 0.58943,-1.05088 1.13923,-1.53794 0.90018,-0.18189 2.02844,-0.43117 2.96197,-0.82595 0.51643,-0.95741 1.93071,-0.58885 2.93352,-0.71202 1.4728,-0.53354 1.36113,0.96865 1.7373,1.82277 0.92377,-0.009 1.19518,1.02599 2.16452,1.05379 0.76005,0.56563 1.57198,0.19604 1.70886,-0.74051 0.87057,-0.45849 1.51325,0.66115 2.33539,0.91139 0.92825,0.0451 1.97984,-0.11857 2.96198,-0.25632 0.58223,-0.25345 0.82864,-0.76805 1.1962,-1.28164 0.18288,-2.19493 -1.36994,0.70996 -0.85442,-0.65504 0.20656,-1.4686 -1.96143,-0.24445 -2.6487,-0.93988 -0.83393,-0.20663 -0.5083,-1.16211 0.28481,-1.19617 0.44065,-0.82858 1.36798,-0.87532 2.07908,-1.36706 0.90631,-0.58255 1.49045,1.39628 2.93349,0.65504 1.38839,0.2771 0.89678,-1.75466 -0.0285,-1.82276 -0.993,0.0163 -0.5481,-2.41984 -1.76578,-1.22466 -0.35919,0.607 -0.9075,-0.1862 -1.31012,-0.39875 -1.33065,-0.54453 -1.71299,1.1056 -1.68035,2.10757 0.63399,1.69344 -1.07498,1.18771 -1.96518,1.25316 -0.9691,0.3895 1.03125,2.07252 -0.74048,2.02212 -1.02402,-0.008 -0.74745,-1.34769 -1.05378,-2.07908 -0.67008,-0.87285 -1.38378,-1.73362 -2.36389,-2.36388 -0.44846,-0.64629 -0.73469,0.21218 -0.19937,0.51264 0.66785,0.77432 1.53551,1.21982 1.93669,2.10756 0.19317,1.09535 -0.96938,1.35975 -1.22466,1.96515 -0.70002,-0.61741 0.74773,-0.74125 0.45568,-1.13923 0.0996,-0.92485 -0.96378,-1.433 -1.70884,-1.82275 -0.25885,-0.44643 -0.70435,-1.65254 -1.53795,-1.16767 -0.30455,0.70473 -1.30195,0.36649 -1.9082,0.74048 -0.74498,0.58852 -1.57486,1.23132 -1.59491,2.33539 -0.062,1.40408 -1.80716,1.05963 -2.84806,0.99684 -1.5935,-0.13044 -1.59008,-2.1524 -1.11074,-3.33223 0.81333,-0.66917 2.66168,0.31407 3.5031,-0.51266 0.10874,-0.71204 -0.24821,-1.68161 -0.88289,-2.10757 -1.25329,-0.3959 0.15908,-1.42818 0.93986,-0.91138 0.4276,-0.17199 0.94754,-0.63354 0.11389,-0.9968 -0.49797,0.0361 -2.10331,-0.20668 -1.62339,-1.3386 0.47126,-0.44366 1.12941,-0.98099 0.68355,-1.70884 -1.2137,-0.63395 -1.11868,0.67054 -1.36709,1.28163 0.0737,1.20518 -1.84913,1.19548 -1.65187,-0.0854 -0.15126,-0.91596 0.77637,-1.04051 1.36706,-1.39556 0.45727,-0.6695 -0.37743,-1.40787 0.19938,-2.193 1.14744,-1.16788 2.34555,0.36865 1.93667,1.62339 0.4532,0.67564 0.51319,1.86982 1.53798,1.85123 0.29771,0.74426 -0.77792,1.25268 -0.56963,1.62339 0.43401,0.65936 1.00471,0.15323 1.11073,-0.39873 -0.0755,-1.48018 2.26254,-1.13919 1.87973,-2.70565 0.01,-1.40728 1.21271,-0.90051 1.33859,0.1424 0.15641,1.19533 1.57353,0.89211 2.39235,0.56962 1.80102,-0.0136 2.50309,-1.64975 3.07591,-2.99047 0.62526,-1.00321 2.0911,-0.79926 2.87656,-1.4525 0.56566,-0.58867 -0.0166,-1.25415 -0.769,-0.85442 -0.75818,0.72757 -2.08016,1.38522 -3.30372,0.96832 -0.6855,-1.35585 0.73198,-2.32081 1.36705,-3.36069 0.29114,-0.52369 0.72471,-1.83864 0.0285,-2.193 -1.14362,0.62851 -2.22027,1.77901 -2.87653,2.87653 -0.87908,1.77061 1.59531,2.35056 0.79745,4.01576 -0.14913,1.03119 -0.94747,1.71557 -1.93668,1.96517 -1.03185,0.61172 -0.76369,-1.11279 -1.22467,-1.59491 -0.0413,-1.15797 -0.95544,-1.18512 -1.33859,-0.17088 -1.54162,0.69764 -2.29875,-1.36931 -1.7373,-2.56327 0.68655,-1.29279 1.74564,-1.89845 2.50626,-3.16133 1.35147,-1.19732 0.9324,-3.58456 2.67719,-4.38602 1.28353,-0.43622 2.14937,-1.65102 3.21831,-2.33541 1.76053,-1.09745 2.17805,0.68982 2.96198,1.28163 1.7338,-0.2847 2.00292,1.90969 3.53159,2.16452 0.87581,0.38305 0.45052,2.15175 -0.8544,1.53796 -0.82305,0.15754 -1.60486,-1.3577 -2.27844,-0.54114 0.56572,0.71045 0.89671,1.86733 1.53794,2.73415 0.29526,-0.39397 0.94199,-0.17143 1.05377,-0.62659 -0.0293,-0.64966 0.76024,-0.83969 1.22467,-1.02529 0.0992,-0.64535 1.66353,-0.48531 0.91139,-1.3101 -0.83382,-0.624 0.56101,-2.45761 0.8544,-1.28164 -0.0217,0.47925 -0.80626,0.88009 -0.0854,1.3101 0.3738,-0.22347 0.79561,-0.53067 1.28164,-0.71203 0.77555,0.003 0.27384,-1.58894 -0.39874,-1.48097 -0.39687,-0.89268 0.85532,-0.6027 0.85441,0 0.11438,1.4292 1.47822,0.54158 2.27845,0.48418 0.61642,0.56625 2.80527,0.51791 1.82277,-0.71202 -0.70215,-1.3782 0.73718,-1.24331 1.4525,-0.8829 0.50711,0.53738 0.93872,1.25887 1.7658,1.45251 0.46306,0.1145 0.39218,-1.11264 -0.1424,-2.13604 -0.66118,-1.26956 0.11241,-0.96955 0.5696,-1.76581 -0.70713,-1.09759 1.33094,-2.87131 1.59493,-0.79744 -0.78779,1.56017 0.59067,1.95402 0.74048,0.54113 1.55888,0.0844 2.90603,0.10836 1.96517,-1.65187 0.47913,-0.96892 2.52327,0.29454 2.93352,-1.22466 -0.61462,-0.90723 0.42905,-1.24988 1.02529,-1.59493 0.38246,-0.64929 1.1889,-0.93608 1.85124,-1.13921 0.42853,-0.72214 0.97785,-0.77824 1.7658,-0.85445 1.53148,-0.13201 1.12016,-1.52616 1.79426,-2.44932 0.16481,-0.0768 0.30592,-0.14823 0.45569,-0.17088 z m -91.82142,0.62657 c 1.25371,0.87607 -0.26867,1.76082 1.7373,1.99363 1.04758,1.11885 1.72105,-2.50696 2.27845,0.48418 2.11676,-0.26112 1.41266,2.08656 -0.31328,2.13606 -0.92295,0.59327 -1.98629,0.92286 -2.16454,-0.51267 -1.7818,-0.25411 -1.54767,-2.44037 -3.90183,-1.85124 0.41425,-0.69681 1.16845,-2.13844 2.3639,-2.24996 z m 77.69505,0.48418 c 0.55367,0.0911 0.2549,1.03779 -0.057,1.39554 -1.61859,0.88233 -2.88587,2.13008 -4.21513,3.41768 -1.25731,0.97629 -2.37286,3.65134 -0.37025,4.32903 0.86186,1.72131 -1.44293,0.73226 -2.19301,0.34179 -0.80054,-2.60403 1.11856,-5.26434 2.81958,-7.26257 0.87695,-1.48831 3.11376,-0.65116 3.73094,-2.19301 0.11673,-0.0256 0.20573,-0.0415 0.28482,-0.0285 z m -70.57491,0.19934 0.19935,0.59812 c -0.0262,7.1e-4 -0.0588,-0.002 -0.0854,0 0.13997,0.14395 0.33427,0.26208 0.48418,0.34176 1.95913,1.35621 -0.8278,3.48599 -1.25315,1.22467 -1.80296,-0.23083 -0.3212,-1.45984 0.74049,-1.56643 -0.1402,-0.1521 -0.21614,-0.34329 -0.0854,-0.59812 z m 100.30864,1.50948 c 0.3362,9e-4 0.69758,0.0899 1.0253,0.28481 0.2175,-0.12137 0.55061,0.21509 0.82595,0.22784 0.82307,1.34416 -1.44873,2.02897 -2.50629,1.45252 -1.11778,-1.15715 -0.35358,-1.96786 0.65504,-1.96517 z m 3.27528,1.08227 c 0.0928,-0.0284 0.22647,-10e-4 0.42721,0.1424 l 0.31328,0.22786 c 0.16125,0.11092 0.31919,0.30133 0.25632,0.5411 -0.8637,0.57467 -1.39948,-0.7882 -0.99681,-0.91136 z m -111.84329,1.50946 c 2.10036,-0.12488 1.50215,3.22316 4.1297,2.62021 0.4298,-1.50891 2.36239,-2.79157 2.1645,-0.25632 -2.20582,4.13162 1.56759,2.23108 2.16452,4.32903 -3.57194,-0.60212 -3.1026,2.82324 0.39875,2.16455 -0.30708,-3.1104 1.78549,0.26552 1.65187,-1.79429 -2.77505,-0.72364 1.04425,-4.11304 -0.65507,-5.72461 -0.0909,1.88043 -2.5439,4.75849 -2.10757,1.93668 0.88159,-0.94113 -1.3766,-3.35205 2.62024,-2.3069 2.00355,-2.16399 2.39548,0.83712 0.39871,2.02211 -1.0027,2.71478 2.11279,4.32828 3.16135,5.61068 0.086,-3.60939 2.94688,-1.57287 1.93668,1.02529 0.98716,2.55123 -2.92681,1.78039 0.1139,2.53477 -0.0568,1.23024 -2.03714,2.51573 -2.05062,0.51265 -1.22201,0.4879 -3.41675,0.4658 -3.84486,2.2215 -0.21666,4.03703 3.19248,4.23123 5.01257,5.5537 -0.29648,3.56063 3.48666,1.60707 2.93349,-0.34177 3.2022,-0.84818 -2.77647,-3.26752 -0.51264,-5.63914 2.34555,-3.21256 2.65602,2.04982 4.32906,3.30375 2.17022,-1.66865 2.13063,-1.36696 3.674,1.90818 1.56654,1.97626 -0.64698,3.62286 2.05058,4.32907 1.53304,2.0749 -3.7512,2.88983 -1.65187,0.51264 2.06733,-2.1166 -4.93968,-0.68391 -2.67716,0.8829 3.98748,1.24794 -1.1232,0.67915 -1.79429,1.65187 -0.079,2.3933 -3.81626,1.86537 -3.70249,4.38601 0.11279,1.95885 -1.4699,2.03353 -1.76577,3.5316 1.90385,4.00806 -1.30564,-2.30694 -4.07274,-0.76897 -3.3369,-0.45165 -4.2561,5.06886 -0.76896,5.21193 2.70413,-1.94926 1.23025,0.2294 2.93348,1.9082 2.01586,-0.40847 1.69713,4.73408 5.21196,2.67719 1.83516,-1.17854 5.72943,-1.81411 6.7499,1.02529 1.59428,1.13975 4.53817,0.17788 4.58538,3.04743 1.34911,2.09827 6.91415,0.81226 5.24042,4.10121 -1.59924,0.96475 -1.20798,4.00626 -2.16451,4.8417 -1.38697,1.19054 -2.99217,1.4174 -3.95881,3.04742 -1.59251,1.01681 -1.40124,2.31437 -2.53476,3.70249 -0.45971,1.66344 -3.1562,1.62335 -3.58857,3.41766 -1.74804,0.71358 -0.85669,2.43298 -0.99682,3.58855 -1.00364,1.33377 1.62678,7.34946 -2.73415,5.06956 -1.87773,-1.88142 -0.64645,-5.56748 -0.8544,-8.25939 0.78739,-3.42218 1.37929,-6.89608 0.91136,-10.56629 0.0759,-1.97158 -0.70891,-3.30756 -1.9082,-3.84489 -3.3438,-1.62082 -0.93347,-5.5899 -1.28161,-8.40176 -1.1515,-2.0088 -3.92106,-1.9537 -5.72461,-3.44617 -1.2646,-0.94627 -4.05053,-0.57455 -4.72777,-2.16452 -0.91419,-1.96133 -1.68417,-4.16007 -4.84171,-3.30374 -1.07508,-1.58365 -2.26762,-2.74735 -3.30375,-4.58538 -0.80165,-2.917 -0.29011,-6.67322 -2.1645,-8.65811 -1.6676,-1.20164 -2.32836,-3.68663 -4.07275,-5.35434 -1.69461,-1.23726 -4.97656,-2.01732 -6.37964,-0.37025 -0.0129,3.13187 -2.87267,4.1166 -2.27844,0.25632 -3.6141,1.33511 -3.79445,-2.86251 -1.62341,-3.78793 -2.12878,0.0759 -2.51489,-3.54995 0.0856,-3.47462 -0.71257,-1.44777 -1.18114,-1.96616 0,-3.33222 0.84856,-2.18025 3.00054,-1.86343 5.2974,-1.25316 2.98556,-0.36358 3.87438,2.49795 6.92077,1.50947 1.41691,-1.48256 4.32283,-0.32741 5.95246,0 -0.0713,2.08173 4.76041,2.85433 4.49992,1.16772 -6.01302,0.70085 1.94349,-3.30022 -3.16135,-2.87656 -0.60697,-4.92847 -0.29183,1.00914 -2.96196,0.19937 -2.09133,-0.98568 -0.54525,-4.81226 1.2816,-5.24042 0.16579,-0.0414 0.31567,-0.0487 0.4557,-0.057 z m 109.45091,0.74048 c 0.13302,-0.054 0.30197,0.0608 0.39872,0.14241 0.60216,1.23993 -0.55229,0.88036 -0.51265,-0.0285 0.0314,-0.062 0.0696,-0.0961 0.1139,-0.1139 z m -95.21063,0.54113 c 0.0774,0.0277 0.0498,0.27338 -0.17088,0.82595 0.5686,5.99388 0.2028,-2.29429 2.76262,-0.51267 3.35394,-0.60933 -1.03399,1.42459 0.68353,1.6519 1.5648,-0.6875 2.10256,0.45048 2.7911,1.53793 2.47009,1.44691 -0.69407,5.15963 3.9588,4.95565 1.24225,2.8848 -2.5932,-0.0405 -2.84803,0.9968 0.82356,0.73427 2.23791,5.24721 0.5411,3.47464 -0.99361,-1.38191 -6.07155,-1.94157 -2.79109,-2.81958 1.78637,-1.88651 0.47068,-2.99759 -0.68354,-2.39238 -0.14943,0.18042 -0.35732,0.33682 -0.59809,0.48416 0.17756,-0.22579 0.39102,-0.37557 0.59809,-0.48416 1.0461,-1.26285 -0.10222,-3.15991 -2.56325,-3.33222 -2.11887,0.99015 -4.53607,0.74851 -2.87654,-1.7658 -0.22226,-0.87517 0.96426,-2.70296 1.19618,-2.62022 z m 26.43,8.91443 c 0.25773,-0.0498 0.62384,0.0491 1.13922,0.34176 0.66365,0.25029 1.96805,-0.98782 2.24996,0.22785 1.20325,2.07516 -1.97604,2.74777 -3.44614,1.96515 -0.45228,-0.98145 -0.71622,-2.38553 0.057,-2.53476 z m 69.00847,16.66114 c 0.0366,-0.0499 0.21519,0.0542 0.51266,0.057 2.86191,0.718 -1.70384,2.6392 -0.51266,0.057 -0.0175,-0.0648 -0.0123,-0.0974 0,-0.11389 z m -0.62655,2.33543 c 1.12868,0.0276 0.41246,2.18418 -0.22787,2.4778 -1.45417,0.072 -2.18716,1.37336 -3.50311,1.70883 -1.7998,0.46237 0.50076,-1.30158 1.08228,-1.28162 1.55189,0.0405 2.13073,-1.70409 2.6487,-2.90501 z m -92.41954,8.77202 c 0.37023,0.38606 1.0411,0.10674 1.39554,0.54112 1.32183,0.62152 1.19272,2.10849 -0.0285,0.79747 -0.3551,-0.71682 -3.2455,-1.24918 -1.36708,-1.33859 z m 4.38601,1.48098 c 1.84026,1.20614 -3.17558,0.42491 0,0 z m 79.71718,0.96835 c 0.1318,-0.0282 0.26303,0.10416 0.42721,0.48415 -0.57529,0.50375 -0.76766,0.73348 -0.76898,0.82594 -0.002,0.15409 0.53395,-0.0863 0.76898,-0.17088 0.9627,0.8283 1.49564,1.89965 1.76579,3.01893 -2.23989,1.95977 -0.94637,-2.05017 -2.24996,-2.24996 -0.16662,-0.10897 -0.24562,-0.34039 -0.28481,-0.59809 -0.0842,-0.55263 0.0722,-1.25245 0.34177,-1.31009 z m -1.82276,4.64232 c 0.0461,-0.009 0.10234,-0.01 0.1424,0 0.69443,0.16701 0.49494,2.7505 -0.1424,3.30375 -0.24049,0.49083 -0.46611,0.71708 -0.62657,1.22466 -1.04718,-0.3999 -2.63278,-0.59395 -2.81958,-1.79425 1.17511,-0.76547 2.78061,-0.73552 2.96199,-2.39239 0.19478,-0.20434 0.34628,-0.31492 0.48416,-0.34177 z m 2.62021,2.22149 c 0.96883,-0.1033 0.64561,1.06656 -0.25633,1.39556 0.39351,0.94063 0.19045,1.84394 -0.74048,0.93985 -0.84357,-0.77447 -1.06727,-2.22924 0.51266,-2.19301 0.19395,-0.0726 0.34577,-0.12765 0.48415,-0.1424 z m 4.61386,0.68355 c 1.26781,-0.12127 3.49297,0.75097 4.52841,1.22466 0.0352,1.17717 1.11533,1.17991 1.76581,1.8797 0.55698,1.8671 -2.63683,-1.36668 -2.3354,0.39874 -1.02711,0.45861 -2.45947,-0.92782 -2.93352,-1.73731 0.13577,-1.32286 -1.20664,0.15048 -1.90818,-1.28164 0.12699,-0.31273 0.46027,-0.44377 0.88288,-0.48415 z m -4.32904,3.44614 c 0.41186,-0.0111 0.76157,-0.002 0.93984,0.0285 0.4134,1.32904 -2.46356,0.19801 -3.16135,0.48418 -0.79572,-0.28135 0.98594,-0.47855 2.22151,-0.51265 z m 4.04425,1.50946 c 0.25938,0.01 0.52387,0.0859 0.79745,0.25633 0.63679,0.52074 1.03062,1.93069 2.13603,2.0791 0.79146,-0.37487 0.42289,-2.98155 1.42404,-1.96517 0.80477,2.45195 2.79766,3.83238 4.15817,5.66764 0.023,1.93874 -0.60511,3.95229 -1.9082,5.41131 -1.06393,1.24864 -3.81116,1.34796 -4.18665,-0.65506 -1.55548,-0.54159 -2.34928,-2.88845 -4.27209,-1.87971 -2.01487,0.10007 -3.1661,2.26742 -5.35435,1.56642 -0.592,-1.82074 -0.8565,-3.66529 -1.22467,-5.61067 0.22656,-0.91414 1.77322,-1.14959 2.47781,-1.59491 0.8275,-1.14139 2.46621,-2.56701 4.04425,-2.16451 0.43444,-0.55263 1.13004,-1.13864 1.90821,-1.11077 z m -35.42986,0.34177 c 0.32165,-0.003 0.90503,0.94923 0.74048,1.28164 -0.76246,1.1855 -1.39254,2.53415 -1.70882,4.01577 -0.98175,0.2226 -1.39239,-1.68565 -0.71202,-2.53478 -0.72454,-1.95703 1.11036,-1.14221 1.48098,-2.39238 0.008,-0.27196 0.0922,-0.36912 0.19938,-0.37025 z m 41.55317,13.41438 c 0.225,0.0255 -0.11377,0.52447 -0.057,0.79743 -0.29529,1.89873 -2.22164,-1.04068 -0.39874,-0.65504 0.22895,-0.11844 0.38072,-0.15088 0.4557,-0.14239 z m -86.52405,6.18028 c 0.73475,0.93795 -1.7971,0.41444 -0.22783,0.11389 l 0.22783,-0.11389 z m 0.37026,7.94607 c 0.10072,0.44715 -0.7501,1.52707 0.057,1.56646 1.76964,-0.51075 0.86126,1.74368 -0.54112,1.39554 -0.10972,1.30132 -0.59219,2.58948 -0.54115,4.04423 -0.93555,1.01603 0.7116,1.83853 0.31328,3.13283 0.12769,1.3457 -3.15134,0.1095 -4.32905,0.5129 -1.18854,0.313 -3.70404,-0.2945 -1.76578,-1.1109 -0.91747,-0.4852 -0.88948,-1.5867 0.45569,-1.02531 -0.29401,-2.82922 1.54199,-0.1316 2.56324,-0.74055 0.81515,-1.29119 -0.85191,-1.64586 -0.8829,-2.70558 0.81867,-0.55669 1.73538,-0.94916 2.0506,-2.05067 1.25854,-0.57314 0.94833,-2.63959 2.62021,-3.01895 z"
       id="rect3059"
       inkscape:connector-curvature="0" />
    <path
       style="color:#000000;fill:#ffffff;fill-opacity:1;fill-rule:nonzero;stroke:none;stroke-width:1;marker:none;visibility:visible;display:inline;overflow:visible;enable-background:accumulate"
       d="m 297,540.36218 0,215 215,0 0,-215 -215,0 z m 87.43543,25.09139 24.3509,0 -8.57266,42.40761 24.00914,0 8.37329,-42.40761 25.23381,0 -8.68659,42.40761 14.9808,0 0,24.00915 -19.87946,0 -6.52205,32.06914 26.40151,0 0,23.92371 -31.30017,0 -8.60114,42.40761 -24.23698,0 8.37328,-42.40761 -24.12305,0 -8.60113,42.40761 -24.57876,0 8.60113,-42.40761 -14.78142,0 0,-23.92371 19.56617,0 6.52206,-32.06914 -26.08823,0 0,-24.00915 30.98688,0 8.57267,-42.40761 z m 10.99349,66.41676 -6.40812,32.06914 24.12306,0 6.3227,-32.06914 -24.03764,0 z"
       id="rect3061"
       inkscape:connector-curvature="0" />
    <g
       id="g4724"
       transform="matrix(1.3006773,0,0,1.3006773,-70.564366,-228.9598)"
       style="fill:#ffffff">
      <path
         style="color:#000000;fill:#ffffff;fill-opacity:1;fill-rule:nonzero;stroke:none;stroke-width:1;marker:none;visibility:visible;display:inline;overflow:visible;enable-background:accumulate"
         d="m 54.252016,591.47798 0,165.2985 165.298494,0 0,-165.2985 z m 101.973124,26.67023 c 5.43267,0 10.03678,2.40517 13.37891,5.9778 3.34214,3.57264 5.51917,8.26414 6.52524,13.18184 1.00605,4.9177 0.84666,10.08483 -0.70071,14.67082 -0.82268,2.43823 -2.08204,4.70127 -3.76624,6.63471 11.93325,1.81365 18.81212,8.57117 22.1814,16.1598 3.94138,8.87715 3.65676,18.72489 3.65676,23.5171 -0.0114,1.26947 -1.16106,2.41913 -2.43053,2.43054 l -41.69141,0 c 0.6917,1.11414 1.29816,2.26822 1.81743,3.43779 3.94138,8.87714 3.67865,18.70299 3.67865,23.4952 -1.3e-4,1.28405 -1.16837,2.4523 -2.45242,2.45244 l -77.689647,0 c -1.284059,-1.3e-4 -2.452309,-1.16838 -2.452435,-2.45244 0,-4.82672 -0.338687,-14.66671 3.569169,-23.539 3.363077,-7.63544 10.297882,-14.40819 22.466053,-16.1598 -1.56186,-1.89328 -2.747331,-4.10029 -3.525371,-6.48143 -1.486619,-4.54968 -1.677664,-9.7001 -0.74449,-14.62702 0.933175,-4.92692 2.980661,-9.6576 6.240571,-13.26943 3.25991,-3.61182 7.85155,-6.0654 13.29133,-6.0654 5.43266,0 10.05867,2.40518 13.4008,5.97782 1.72948,1.84876 3.14329,3.9982 4.24796,6.32815 1.78587,-0.52484 3.71422,-0.9203 5.75885,-1.20432 -1.57245,-1.89865 -2.78765,-4.11157 -3.56916,-6.50333 -1.48663,-4.54968 -1.65577,-9.7001 -0.7226,-14.62703 0.93317,-4.92692 2.98065,-9.65759 6.24057,-13.26942 3.25992,-3.61183 7.85155,-6.06539 13.29132,-6.06539 z"
         id="rect3057"
         inkscape:connector-curvature="0"
         sodipodi:nodetypes="cccccsssscscccsccccscsssssccssss" />
    </g>
  </g>
</svg>
